<svg width="141" height="24" viewBox="0 0 141 24" fill="none" xmlns="http://www.w3.org/2000/svg">
<g clip-path="url(#clip0_1_207)">
<g clip-path="url(#clip1_1_207)">
<g clip-path="url(#clip2_1_207)">
<mask id="mask0_1_207" style="mask-type:luminance" maskUnits="userSpaceOnUse" x="1" y="4" width="140" height="16">
<path d="M140.21 4.17389H1.01324V19.8261H140.21V4.17389Z" fill="white"/>
</mask>
<g mask="url(#mask0_1_207)">
<path d="M21.5457 19.6035V4.24068H27.4458C30.1399 4.24068 32.0102 5.97734 32.0102 8.44873C32.0102 9.76236 31.3644 10.9647 30.2067 11.6103C31.743 12.1892 32.6336 13.5028 32.6336 15.2173C32.6336 17.8 30.8078 19.6035 28.0248 19.6035H21.5457ZM24.1062 10.742H27.1787C28.5814 10.742 29.472 9.89595 29.472 8.62685C29.472 7.35776 28.5814 6.48943 27.1787 6.48943H24.1062V10.742ZM24.1062 17.3547H27.4904C29.049 17.3547 30.0731 16.4863 30.0731 15.1281C30.0731 13.7701 29.049 12.9017 27.4904 12.9017H24.1062V17.3547ZM33.7097 14.0817C33.7097 10.8533 36.1143 8.33741 39.2759 8.33741C40.8344 8.33741 42.1481 8.96083 42.9719 10.0295V8.56006H45.3319V19.6035H42.9719V18.134C42.1703 19.2027 40.8344 19.8261 39.2759 19.8261C36.1143 19.8261 33.7097 17.3102 33.7097 14.0817ZM42.8828 14.0817C42.8828 12.1002 41.4802 10.653 39.5431 10.653C37.6061 10.653 36.1811 12.1002 36.1811 14.0817C36.1811 16.0633 37.6061 17.4882 39.5431 17.4882C41.4802 17.4882 42.8828 16.0633 42.8828 14.0817ZM46.6855 14.0817C46.6855 10.8533 49.2014 8.33741 52.4966 8.33741C55.2129 8.33741 57.0609 10.0073 57.751 11.7662L55.4356 12.6568C54.9903 11.499 53.8548 10.653 52.4966 10.653C50.5596 10.653 49.1569 12.1447 49.1569 14.0817C49.1569 16.0188 50.5818 17.5105 52.4966 17.5105C53.877 17.5105 54.9903 16.6868 55.4356 15.5289L57.751 16.3973C57.0609 18.1785 55.2129 19.8261 52.4966 19.8261C49.2014 19.8261 46.6855 17.3102 46.6855 14.0817ZM59.3319 19.6035V4.24068H61.8033V13.4583L66.1227 8.56006H69.0394L64.4528 13.8368L69.2397 19.6035H66.234L61.8033 14.3489V19.6035H59.3319ZM72.6361 19.6007V4.17389H75.7188L81.1078 14.3462L86.4736 4.17389H89.4874V19.6007H86.9533V8.53316L82.0439 17.8111H80.0799L75.1705 8.53316V19.5997H72.6361V19.6007ZM90.8456 14.0789C90.8456 10.8506 93.2509 8.33463 96.4117 8.33463C97.9709 8.33463 99.2839 8.95805 100.108 10.0268V8.55728H102.468V19.6007H100.108V18.1312C99.3065 19.1999 97.9709 19.8233 96.4117 19.8233C93.2509 19.8233 90.8456 17.3074 90.8456 14.0789ZM100.019 14.0789C100.019 12.0974 98.6161 10.6502 96.6796 10.6502C94.7422 10.6502 93.317 12.0974 93.317 14.0789C93.317 16.0605 94.7422 17.4855 96.6796 17.4855C98.6161 17.4855 100.019 16.0605 100.019 14.0789ZM104.167 19.6007V8.55728H106.527V10.0936C107.151 9.13616 108.198 8.55728 109.756 8.55728H110.513V11.0287H109.467C107.463 11.0287 106.639 12.1196 106.639 13.8341V19.6007H104.167ZM111.916 19.6007V4.23697H114.387V13.4555L118.707 8.55728H121.623L117.037 13.8341L121.824 19.6007H118.818L114.387 14.3462V19.6007H111.916Z" fill="#002B56" fill-opacity="0.6"/>
<path d="M121.241 14.0818C121.241 10.8534 123.713 8.33748 126.853 8.33748C129.992 8.33748 132.373 10.7421 132.373 14.015C132.373 14.2822 132.373 14.5716 132.329 14.8388H123.691C123.98 16.6422 125.227 17.6664 126.964 17.6664C128.3 17.6664 129.324 16.9985 129.902 15.9966L131.951 17.1543C130.838 18.8242 129.101 19.8262 126.964 19.8262C123.713 19.8262 121.241 17.2879 121.241 14.0818ZM123.757 13.0354H129.88C129.658 11.5436 128.5 10.4749 126.83 10.4749C125.293 10.4749 124.113 11.4323 123.757 13.0354ZM138.518 19.6035C136.002 19.6035 134.8 18.5125 134.8 16.2192V10.8311H132.974V8.56012H134.243C134.577 8.56012 134.8 8.33748 134.8 7.93671V5.79836H137.271V8.55919H140.21V10.8302H137.271V15.9734C137.271 16.8417 137.694 17.287 138.696 17.287H140.21V19.6026L138.518 19.6035ZM16.5476 4.24353H2.36305C1.61718 4.24353 1.01324 4.84561 1.01324 5.58963V18.2602C1.01324 19.0042 1.61718 19.6062 2.36305 19.6062H16.5476C17.2925 19.6062 17.8974 19.0033 17.8974 18.2602V5.58963C17.8974 4.84654 17.2935 4.24353 16.5476 4.24353ZM10.2104 16.5792H7.42644C7.33738 16.5792 7.25296 16.5439 7.18988 16.4809L2.73321 12.0242C2.67847 11.9694 2.67847 11.8804 2.73321 11.8247L7.18988 7.36803C7.25296 7.30494 7.33738 7.26969 7.42644 7.26969H10.2104C10.2865 7.26969 10.3246 7.36153 10.2708 7.41441L5.86048 11.8247C5.80575 11.8794 5.80575 11.9685 5.86048 12.0242L10.2708 16.4344C10.3246 16.4882 10.2865 16.5792 10.2104 16.5792ZM11.6985 12.0242L16.1088 16.4344C16.1626 16.4882 16.1246 16.5792 16.0485 16.5792H13.2644C13.1754 16.5792 13.091 16.5439 13.0279 16.4809L8.57122 12.0232C8.51649 11.9685 8.51649 11.8794 8.57122 11.8238L13.0279 7.3671C13.091 7.30402 13.1754 7.26877 13.2644 7.26877H16.0485C16.1246 7.26877 16.1626 7.36061 16.1088 7.41349L11.6985 11.8238C11.6437 11.8785 11.6437 11.9676 11.6985 12.0232V12.0242Z" fill="#002B56" fill-opacity="0.6"/>
</g>
</g>
</g>
</g>
<defs>
<clipPath id="clip0_1_207">
<rect width="140" height="24" fill="white" transform="translate(0.75)"/>
</clipPath>
<clipPath id="clip1_1_207">
<rect width="140" height="24" fill="white" transform="translate(0.75)"/>
</clipPath>
<clipPath id="clip2_1_207">
<rect width="140" height="15.6522" fill="white" transform="translate(0.75 4.17389)"/>
</clipPath>
</defs>
</svg>
