<svg width="50" height="24" viewBox="0 0 50 24" fill="none" xmlns="http://www.w3.org/2000/svg">
<g clip-path="url(#clip0_1_236)">
<g clip-path="url(#clip1_1_236)">
<path d="M32.6445 16.5541C32.6752 16.7381 32.729 16.9144 32.8135 17.0831V18.6166H32.7905C32.7444 18.6473 32.6983 18.6856 32.6522 18.7163C32.6522 18.7317 32.6522 18.747 32.6522 18.7623C32.6522 18.7853 32.6522 18.8083 32.6522 18.8313V18.885H30.1701V18.8697C30.1394 18.816 30.1086 18.77 30.0702 18.7239L29.2557 18.6396C29.0789 18.8236 28.8714 18.9616 28.6332 19.0537H28.5948C27.9723 19.0537 27.6265 19.0844 27.273 19.0844C26.9656 19.2224 26.6506 19.3297 26.3202 19.3911H26.2971V19.3757C26.1895 19.2607 26.128 19.1073 26.128 18.954C26.128 18.8313 26.1511 18.7317 26.1511 18.678V18.0262L26.1741 18.0109C26.228 17.9802 26.2817 17.9419 26.3278 17.8882C26.3662 17.8346 26.3817 17.7656 26.3739 17.6966C26.3586 17.5815 26.3278 17.4741 26.2894 17.3745V17.3285L26.3278 17.3055C26.4585 17.2442 26.5584 17.1445 26.6352 17.0218C26.6583 16.9605 26.6737 16.8915 26.666 16.8301C26.666 16.7228 26.6506 16.6155 26.6276 16.5081V16.462L26.666 16.4391C26.7197 16.4084 26.7735 16.3701 26.8119 16.324C26.8427 16.2704 26.8581 16.209 26.8504 16.1477C26.8427 16.048 26.8274 15.9483 26.7966 15.8487V15.8026C26.7966 15.7107 26.9195 15.5496 26.9656 15.3886C27.0041 15.2276 27.0272 15.0666 27.0195 14.8979C27.0195 14.6679 26.9964 14.4379 26.958 14.2078C26.9349 14.0698 26.8811 13.9472 26.7966 13.8321C26.6737 13.4565 26.6121 13.0653 26.6199 12.6667C26.6276 12.1299 26.6813 11.5932 26.7813 11.0642L27.7571 8.46489C27.6957 8.41122 27.6419 8.34988 27.5958 8.28087C27.5881 8.25021 27.5881 8.21953 27.5958 8.18886C27.5958 8.12752 27.5958 8.09685 27.5958 8.03552V7.99718L27.6111 7.98184C27.7418 7.8515 27.8187 7.68281 27.8417 7.49879C27.8417 7.41445 27.8417 7.36077 27.8417 7.3071C27.8417 7.25343 27.8417 7.2611 27.8417 7.22277C27.8801 7.03107 28.2873 6.54036 28.3335 6.08798C28.3335 6.01897 28.3335 5.94996 28.3335 5.88095C28.3335 5.74294 28.3335 5.61259 28.3335 5.60493C28.5948 4.83051 28.979 4.10977 29.4708 3.45803V2.85231H29.4939C29.5553 2.81397 29.6091 2.76029 29.6322 2.69128C29.6322 2.64528 29.6322 2.69128 29.5476 2.57627H28.6793V2.5456C28.6485 2.47659 28.6024 2.42292 28.5487 2.36925C28.4795 2.30791 28.3873 2.27724 28.2951 2.28491C28.1106 2.30791 27.9185 2.34625 27.7418 2.39225C27.6111 2.46126 27.5189 2.58394 27.4805 2.72962C27.3345 3.07466 27.2423 3.42736 27.1885 3.7954C27.0348 4.76917 26.8735 4.90719 26.666 4.93018H26.5815C26.4892 4.93018 26.397 4.98386 26.3662 5.07587L26.3278 5.12187L26.2894 5.0682C26.2203 5.00686 26.1204 4.91485 26.0896 4.89951L26.0512 4.87652V4.83051C26.105 4.70783 26.128 4.58515 26.128 4.4548C26.128 4.27845 26.0512 4.19411 26.0435 4.00242C26.0743 3.84908 26.1665 3.71106 26.2894 3.61905V0.598063H31.9221V0.628734C32.022 0.789751 32.0297 0.782084 32.0297 0.782084H32.1603H32.2142V0.981437C32.0681 1.15012 32.0144 1.73285 31.5379 2.20057C31.5533 2.30025 31.5609 2.40759 31.5609 2.50726C31.5609 2.59161 31.5533 2.68362 31.5379 2.76796C31.4611 3.04399 31.292 3.28168 31.0538 3.43503C31.0691 3.5347 31.0768 3.64205 31.0768 3.74173C31.0768 3.83373 31.0691 3.91808 31.0461 4.00242C30.9309 4.28612 30.7311 4.15577 30.7233 4.48547C30.7233 4.48547 30.6311 5.10654 30.5466 5.50525C30.4621 5.90396 30.2623 6.12631 30.2623 6.42534C30.2546 6.47901 30.2546 6.52502 30.2623 6.57869L30.2162 8.1812H30.1931C29.9549 8.32688 29.9933 9.23931 29.563 9.69171V10.2591C29.4324 10.6041 29.1865 10.5888 29.0789 11.0335V12.912L28.5871 14.3229C28.5871 14.3765 28.6024 14.5759 28.6024 14.7982C28.6024 14.9209 28.5948 15.0513 28.5794 15.1739C28.4795 15.611 28.3104 16.0327 28.0722 16.4161L28.003 16.5311C28.003 16.5464 28.003 16.5617 28.003 16.5694C27.98 16.7535 27.9262 16.9375 27.8493 17.1138C27.8187 17.2442 27.7725 17.3745 27.7034 17.4895C27.7341 17.5355 27.7802 17.5662 27.834 17.5738C27.8801 17.5355 27.9185 17.4895 27.9416 17.4282L27.9723 17.3745L28.0261 17.3975C28.1106 17.4435 28.2105 17.4588 28.3104 17.4588C28.4949 17.4588 28.6869 17.3898 28.9252 17.3898C28.9867 17.3898 29.002 17.3361 29.0174 17.2058C29.0251 17.0524 29.0789 16.9068 29.1788 16.7918C29.4247 16.5311 29.9703 16.4774 30.0933 16.3854C30.7617 15.9254 31.0307 16.14 31.4687 15.4347L31.5072 15.3733L31.5609 15.4269C31.6148 15.4806 31.6685 15.5343 31.7146 15.588H32.5369V15.6187C32.6752 15.7336 32.7751 15.8947 32.8212 16.071C32.7136 16.2167 32.6522 16.3854 32.6445 16.5541ZM36.8095 13.2494C36.8248 13.9165 36.8018 14.5835 36.7403 15.2429V15.266H36.7249C36.5712 15.519 36.456 15.795 36.3945 16.0787C36.3099 16.4468 36.1485 16.7918 35.9258 17.0908V18.0262L35.9027 18.0416C35.7105 18.1566 35.6799 18.8773 35.4339 19.1763V19.7591L35.4109 19.7745C35.3648 19.8051 35.3187 19.8435 35.2725 19.8818V20.6331L35.2495 20.6485C35.1803 20.7405 35.0805 20.8095 34.9652 20.8402C34.9268 20.8402 34.896 20.8249 34.8807 20.7942C34.8499 20.8018 34.8192 20.8172 34.7884 20.8325L34.6962 20.8862V19.8664L34.2045 18.2563V17.7962C34.2351 17.4205 33.3975 17.1521 33.3898 16.3777V16.3547C34.0123 15.6417 34.3888 14.7446 34.4503 13.8015C34.4733 13.7018 34.0277 13.3797 33.5512 13.1343C33.1747 12.9504 32.8212 12.7357 32.4831 12.498H32.1834L32.3217 12.912V13.8091C32.5446 13.8628 32.6829 14.1311 32.8135 14.1542C32.8596 14.1618 32.8981 14.2002 32.8981 14.2461C32.8059 14.3995 32.7213 14.5528 32.6445 14.7139V14.7675H32.583C32.583 14.7675 32.0835 14.7369 31.6685 14.7369C31.5148 14.7292 31.3611 14.7446 31.2075 14.7675C30.4313 15.0283 29.54 15.3579 29.54 15.3579H29.4939L29.4708 15.3196C29.2557 14.9669 29.44 15.0666 29.2402 14.7829L29.2172 14.7446L29.2402 14.7139C29.4016 14.4685 29.6014 14.2461 29.8243 14.0468C29.8243 13.8168 29.878 13.5945 29.978 13.3797C30.147 13.1267 30.5159 13.0577 30.4774 12.9657C30.4467 12.912 30.4006 12.8661 30.3392 12.843L30.3084 12.82V12.7817C30.3084 12.7817 30.3699 12.2603 30.4237 11.9766C30.4313 11.9229 30.439 11.8769 30.4544 11.8233C30.4083 11.6775 30.3776 11.5242 30.3776 11.3709C30.3699 11.2482 30.4083 11.1332 30.4774 11.0335C30.5235 10.9875 30.5697 10.9491 30.6235 10.9108V10.2054H30.6465C30.7311 10.1747 30.7925 10.0827 30.7848 9.99069C30.7848 9.93703 30.7848 9.96771 30.7387 9.9294C30.6542 9.891 30.6004 9.79903 30.6158 9.69934C30.6081 9.65331 30.6081 9.615 30.6158 9.56897C30.6311 9.49234 30.6388 9.408 30.6388 9.33129C30.6388 9.17031 30.6004 9.07063 30.6004 8.92491C30.6004 8.84829 30.6081 8.77928 30.6311 8.71029C30.7233 8.5109 30.8386 8.31921 30.9693 8.14286C31.0922 7.8515 31.1537 7.53713 31.1537 7.22277V7.18443H31.1844C31.5609 6.99273 31.3381 6.16465 31.6224 5.50525C31.7223 5.21388 31.876 4.94553 32.0758 4.70783C32.0758 4.6925 32.0758 4.66949 32.0758 4.65416C32.0758 4.53915 32.022 4.43947 32.0144 4.30912C32.0144 4.24011 32.0374 4.17878 32.0758 4.1251C32.1219 4.07143 32.1757 4.03309 32.2372 3.99476C32.3294 3.68039 32.4447 3.36603 32.5907 3.07466C32.6598 2.89064 32.7675 2.72962 32.9134 2.59161V1.84786L32.9365 1.83253C32.9902 1.80186 33.0363 1.75585 33.0594 1.69451C33.1055 1.60251 33.1824 1.52583 33.2823 1.47982C33.4359 1.47982 33.4514 1.32647 33.459 1.10412C33.459 1.04277 33.459 0.981437 33.459 0.9201C33.459 0.690073 33.4975 0.414045 33.8125 0.414045C34.3581 0.437047 34.2966 1.33414 34.3581 1.41849C34.7961 2.37692 34.9191 2.22357 34.9344 2.46126V2.94431C34.9344 3.35835 35.5262 4.89951 35.5338 4.90719L36.0487 6.9314C36.1025 6.9774 36.1409 7.01574 36.1947 7.04641H36.2177V7.76715C36.3177 7.84383 36.3868 7.95884 36.3945 8.08152C36.3945 8.15053 36.3714 8.19653 36.3791 8.2272C36.3945 8.30387 36.4483 8.37288 36.5251 8.40355H36.5481V9.36197H36.502C36.502 9.36197 36.502 9.39266 36.502 9.408C36.5328 9.9984 36.6097 10.5811 36.7249 11.1639V11.1945C36.7941 11.5089 36.8095 12.383 36.8095 13.2494ZM32.7213 10.8111C32.729 10.9108 32.7213 11.0028 32.6983 11.0949V11.1178C32.7981 11.1102 32.8981 11.1102 32.9979 11.1178C33.1593 11.1178 33.3207 11.1332 33.4821 11.1639C33.9585 11.2635 34.2351 11.6009 34.5349 11.6929H34.6731C34.6731 11.4629 34.6962 10.6425 34.6962 9.98306C34.6962 9.60737 34.6962 9.30069 34.6731 9.18566C34.5809 9.00163 34.5349 8.79463 34.5425 8.59526C34.5502 8.37288 34.4811 8.15053 34.3581 7.96651C34.166 7.78249 33.9124 7.88216 33.6819 7.64447C33.5512 7.47578 33.4514 7.29177 33.3822 7.09241L33.3591 7.84382V7.87449H33.3361C33.2361 7.96651 33.1747 8.08152 33.1516 8.21187C33.1209 8.34988 33.0057 8.46489 32.8673 8.49556C32.875 8.85591 32.8212 9.21634 32.7059 9.56134C32.6983 9.63806 32.6983 9.7224 32.7059 9.79903C32.6675 10.0981 32.7213 10.5121 32.7213 10.8111ZM25.9282 13.7401L25.8591 13.7554C25.6055 13.8091 25.7208 14.0162 25.5133 14.2385C25.4672 14.4762 25.4518 14.7215 25.4672 14.9592C25.4672 15.6877 25.521 16.6767 25.521 16.6767V16.7457H25.4595C25.229 16.7918 25.0215 16.9068 24.8601 17.0678L24.8447 17.0985H22.9697L22.9544 17.0678C22.8468 16.8991 22.8468 16.8991 22.8391 16.9068C22.8315 16.9144 22.7546 16.9068 22.6393 16.9068C22.5164 16.8915 22.3934 16.9527 22.3243 17.0601C22.2705 17.1828 22.1475 17.2595 22.0168 17.2671C21.817 17.2288 21.6249 17.1368 21.4713 17.0065H20.1879V16.9758C20.0957 16.8991 20.0343 16.7918 20.0112 16.6767C20.0343 16.6155 20.0727 16.5617 20.1265 16.5158L20.2418 16.393V15.3119H20.2648C20.4185 15.197 20.4032 15.2122 20.4108 15.1816C20.4185 15.1509 20.4108 15.1203 20.4108 15.0589C20.4108 15.0513 20.4108 15.0435 20.4108 15.0435L20.3877 14.9823C20.3647 14.9286 20.334 14.8596 20.3032 14.7906C20.2571 14.6832 20.1957 14.5835 20.1188 14.4992L20.065 14.4609L20.1034 14.4148C20.1649 14.3305 20.2034 14.2308 20.2034 14.1235C20.2034 14.0085 20.1649 13.9011 20.0957 13.8168C20.0881 13.7325 20.0881 13.6404 20.0957 13.5561C20.0957 13.0424 20.2802 12.4213 20.2802 12.1223V12.038L20.3032 12.0226C20.4646 11.9306 20.4108 11.3938 20.6106 10.9875C20.772 10.7038 20.9641 10.4431 21.1869 10.1978C21.2561 9.67637 21.502 9.19328 21.8862 8.82523C21.9247 8.64128 22.2166 7.18443 22.5087 6.74738C22.5778 6.68604 22.6547 6.6247 22.7315 6.57103L22.916 6.44067C22.916 6.34867 23.0313 6.06497 23.5691 5.58192C23.5154 5.3979 23.4923 5.19855 23.4923 5.00686C23.4846 4.83818 23.523 4.66949 23.5845 4.51614C23.9379 4.26312 24.1455 3.68805 24.7218 3.16667V2.00121L22.9083 1.98588C22.6393 2.2389 21.9323 2.26191 21.9247 3.205V3.26635H21.8478C21.7249 3.28168 21.6019 3.32769 21.4943 3.39669C21.3714 3.45036 21.2869 3.55771 21.2561 3.68805V5.00686C21.1869 5.24455 21.0717 5.46691 20.918 5.6586L20.8796 5.71994L20.8257 5.66626C20.7336 5.59725 20.6721 5.48991 20.6721 5.3749C20.6721 5.31356 20.6721 5.26755 20.6721 5.23689C20.6644 5.15254 20.6106 5.08353 20.5338 5.05287H20.5107V5.01453C20.5107 5.01453 20.4646 4.67716 20.4261 4.46247C20.4261 4.37813 20.4108 4.29379 20.3801 4.21711L20.3416 4.19411V4.1481C20.4261 3.90274 20.48 3.64971 20.4953 3.39669C20.5107 3.23567 20.4569 3.07466 20.3571 2.95197C20.3109 2.90597 20.2571 2.85997 20.2034 2.8293H20.1803V1.23447C20.2648 1.12712 20.3109 0.996771 20.334 0.858754C20.334 0.858754 20.334 0.835755 20.334 0.828087V0.759081H20.4032C22.7162 0.759081 22.9313 0.759081 25.2059 0.759081H25.2674V1.67918C25.2674 1.81719 25.4211 1.84019 25.4288 2.07789V5.0682L25.4057 5.08353C25.2597 5.22921 25.1906 5.43624 25.2059 5.64327C25.2059 5.78895 25.229 5.93463 25.2597 6.08031V6.11865L25.2213 6.14165C24.7449 6.47135 24.4989 7.79782 24.2146 8.13519V8.8866H24.1762C24.1762 8.8866 23.5154 9.17031 23.3924 9.51531C23.3617 9.60737 23.3463 9.70706 23.354 9.80666C23.354 9.94474 23.3693 10.0904 23.4001 10.2284V10.2821L23.354 10.2975C22.816 10.5045 21.94 12.9427 21.9554 13.0653V13.5101H21.8862L21.917 13.5408C21.9016 13.5638 21.8939 13.5791 21.8862 13.6021C21.8631 13.6557 21.8325 13.7401 21.7863 13.8398C21.7095 14.0468 21.6096 14.3151 21.5097 14.5912C21.3867 15.0513 21.2331 15.4959 21.041 15.9254C21.1255 16.0557 21.1331 16.0557 21.1408 16.0557C21.1485 16.0557 21.21 16.0557 21.2869 16.0557C21.4329 16.0557 21.4943 15.9713 22.1168 15.68C22.3857 15.6723 22.6547 15.611 22.8929 15.5037C23.085 15.2813 23.254 15.0359 23.4001 14.7829C23.5922 14.4302 23.9379 14.1771 24.3375 14.0928C24.376 13.8398 24.4759 13.6021 24.6373 13.4027L24.691 13.3491L24.7295 13.4181C24.7526 13.4641 24.7833 13.5101 24.814 13.5484C25.3365 13.3107 25.0983 13.0577 25.3749 12.728V12.705H25.836V12.7664C25.836 12.7664 25.836 12.8277 25.836 12.9273C25.836 13.1804 25.8745 13.4258 25.9513 13.6635L25.9282 13.7401ZM11.9349 14.8365C11.9349 15.0359 12.0501 15.4347 12.0501 15.8026C12.0501 15.887 12.0425 15.979 12.0271 16.0634C11.9579 16.3471 11.8657 16.6231 11.7428 16.8837C11.5583 17.1445 11.4046 17.4205 11.2663 17.7042C11.151 18.0723 11.0742 18.4479 11.0358 18.839V18.8773H11.005C10.6439 19.046 10.2981 19.2377 9.96764 19.4601C9.66795 19.6287 9.40668 19.8588 9.21456 20.1501V20.1885H9.17615C8.82266 20.2345 8.47686 20.3035 8.13874 20.3955C8.12337 20.3955 8.108 20.4032 8.09263 20.4108C8.05422 20.4645 8.00042 20.5029 7.93126 20.5105C7.73915 20.4798 7.70073 20.2575 7.57009 20.2728C7.47788 20.2881 7.38567 20.3342 7.33188 20.4108C7.23967 20.5948 7.00145 20.5948 6.72481 20.5948C6.39437 20.5872 6.05626 20.5565 5.73351 20.5029C5.67204 20.5258 5.60287 20.5412 5.53371 20.5335C5.35697 20.5335 5.12644 20.4951 5.00349 20.4951H4.94201L4.91127 20.5948L4.85748 20.5412C4.78832 20.4798 4.68842 20.3878 4.65769 20.3725L4.5501 20.3035L4.66537 20.2652C4.84211 20.1962 5.00349 20.1117 5.15718 20.0044V19.9815C5.15718 19.9584 5.18023 19.9125 5.19559 19.8664C5.21096 19.8204 5.26476 19.6364 5.30318 19.4907C5.38003 19.1917 5.46456 18.8236 5.51834 18.5399C5.51834 17.5815 5.57214 17.0908 5.57214 16.5924C5.57214 16.3164 5.55677 16.0403 5.51834 15.7643C5.51834 15.6493 5.44919 14.7675 5.37234 14.1235C5.37234 13.0884 5.43381 12.0303 5.43381 11.4015C5.43381 11.2789 5.43381 11.1792 5.43381 11.0949V11.0028H5.49529C5.57982 10.9952 5.65667 10.9415 5.69509 10.8572L5.66435 10.0214L5.5414 9.76071V8.56457C5.56445 8.43423 5.61824 8.31921 5.69509 8.21187C5.71814 8.12752 5.72582 8.04318 5.71814 7.96651C5.71814 7.80549 5.71814 7.63681 5.70277 7.5908L5.53371 7.3071V3.159H5.55677C5.71045 3.04399 5.71045 3.04399 5.71045 3.02098C5.71045 2.99799 5.71045 2.92898 5.71045 2.80629C5.71045 2.68362 5.71045 2.62995 5.71045 2.61461C5.67204 2.57627 5.6413 2.53027 5.61055 2.48427H5.47224C5.46456 2.50726 5.4415 2.5226 5.41844 2.5226C5.39539 2.5226 5.36466 2.5226 5.34929 2.50726H5.29549C5.26476 2.4996 5.24171 2.47659 5.24939 2.44593C5.24939 2.43059 5.25708 2.40759 5.27245 2.39992L5.18791 2.30025L4.64232 1.78653C4.61158 1.72518 4.57316 1.67918 4.51937 1.63317C4.48094 1.61017 4.45789 1.56417 4.46557 1.52583C4.46557 1.49516 4.46557 1.44915 4.46557 1.35714C4.45021 1.27281 4.45789 1.18079 4.49631 1.10412C4.5501 1.05045 4.59621 0.996771 4.63463 0.927763V0.897094H5.53371C5.74119 0.812753 5.96404 0.759081 6.18689 0.751413C6.49427 0.713075 6.80934 0.690073 6.91692 0.690073L7.76989 0.713075C8.64592 0.713075 8.96867 0.628734 9.42204 0.628734C9.67564 0.628734 9.92922 0.651735 10.1751 0.697741H10.2135V0.736078C10.3058 0.943097 10.4671 1.11178 10.6669 1.21146H10.7591C10.9128 1.21146 11.0588 1.2498 11.1895 1.33414C11.6966 1.77119 12.004 2.39225 12.0348 3.05932C12.0348 3.52704 12.1423 3.97175 12.1423 4.31679C12.1577 4.50081 12.1039 4.68483 11.981 4.82284L11.3739 5.95763C11.0896 6.41768 10.7668 6.85473 10.4133 7.2611C10.4594 7.33011 10.5209 7.39144 10.5978 7.42978C10.7745 7.52946 10.9666 7.58313 11.1664 7.59847C11.2894 7.6138 11.3816 7.72115 11.3816 7.8515C11.3585 8.02785 11.2971 8.18886 11.1895 8.33455C11.1818 8.34988 11.1818 8.36522 11.1895 8.38055C11.1895 8.43423 11.2048 8.48789 11.2279 8.5339C11.2356 8.56457 11.2586 8.58754 11.2894 8.59526C11.2894 8.59526 11.2894 8.59526 11.3124 8.5722L11.3508 8.5109L11.3893 8.54924C11.5276 8.64128 11.6275 8.77157 11.6813 8.92491C11.6813 8.94797 11.6352 8.90194 11.835 9.05529L11.8657 9.07826V9.11666C11.7812 9.48463 11.7351 9.86803 11.7274 10.2514C11.7197 10.5198 11.7658 10.7882 11.858 11.0335C11.9041 11.1715 12.1808 11.2405 12.2038 11.4476C12.2038 11.4935 12.1808 11.5395 12.15 11.5702C12.15 11.6316 12.15 11.7849 12.15 11.9459C12.15 12.0533 12.15 12.1683 12.15 12.2603C12.15 12.2833 12.15 12.2986 12.15 12.3216C12.15 12.8354 12.2422 13.3261 12.2422 13.7785C12.2653 14.1235 12.1654 14.4609 11.9656 14.7446C11.9426 14.7753 11.9349 14.8136 11.9426 14.8519H11.9349V14.8365ZM9.70638 3.55771C9.69869 3.52704 9.71406 3.49637 9.73711 3.48104L9.97533 3.31235C9.70638 3.22034 9.46815 3.38136 9.2453 2.93664H9.16846L8.44612 3.04399L8.49222 2.94431C8.50759 2.92131 8.51528 2.89064 8.51528 2.86764L8.45381 2.89831C8.43075 2.97498 8.41538 3.05165 8.41538 3.12833C8.4077 3.22801 8.34622 3.30468 8.25401 3.34302V6.47135C8.3078 6.45602 8.3616 6.44067 8.42307 6.44067C8.48454 6.44067 8.54602 6.45602 8.59981 6.49435C8.92255 6.39467 8.79192 5.59725 9.73711 5.48991C9.73711 5.40557 9.73711 5.27523 9.73711 5.1142C9.73711 4.7385 9.73711 4.29379 9.89849 4.11743C9.81396 3.92575 9.75248 3.74939 9.70638 3.55771ZM9.837 14.6985C9.837 14.5912 9.89849 14.4915 9.8908 14.4225C9.8908 14.3765 9.86006 14.3305 9.82164 14.3075L9.74479 14.2615L9.82164 14.2078C9.86774 14.1771 9.8908 14.1311 9.88312 14.0775C9.88312 13.8858 9.66795 13.5484 9.66026 13.2264C9.65258 13.0653 9.72942 12.9197 9.86006 12.82C9.89849 12.6436 9.85237 12.4673 9.74479 12.3293C9.61416 12.1913 9.56037 12.0073 9.59111 11.8233C9.59111 11.6392 9.75248 11.3172 9.75248 11.1255C9.76016 11.0795 9.74479 11.0412 9.70638 11.0105L9.65258 10.9798L9.67563 10.9262C9.70637 10.8725 9.71406 10.8111 9.71406 10.7498C9.70637 10.6118 9.65258 10.4814 9.56037 10.3741L9.46815 10.2744H9.59879H9.63721C9.58342 10.1901 9.53731 10.0904 9.50658 9.9984C9.50658 9.96008 9.52194 9.9294 9.55268 9.90634C9.56805 9.891 9.57574 9.86803 9.57574 9.84506C9.52194 9.69934 9.43741 9.56897 9.32215 9.46937C9.07625 9.32366 8.8534 9.14726 8.64592 8.94797L8.23864 8.52623C8.23864 8.74089 8.23864 9.12429 8.23864 9.477C8.23864 9.73003 8.23864 9.96771 8.23864 10.1211V10.1364C8.1618 10.2514 8.12337 10.3894 8.13106 10.5351C8.13875 10.7882 8.16948 11.0412 8.23096 11.2865L8.05422 12.1299H8.03116C7.95432 12.1529 7.90821 12.2219 7.90821 12.2986C7.90821 12.2986 7.90821 12.2986 7.90821 12.314C7.90821 12.3983 7.95432 12.4673 8.03116 12.498H8.06958V15.5803V15.5956C8.00042 15.6417 7.94664 15.7107 7.92358 15.7874C7.92358 15.841 7.92358 15.887 7.90052 15.91C7.90052 15.933 7.88515 15.9483 7.87747 15.9637C7.87747 16.1247 7.87747 16.4851 7.87747 17.2671C7.87747 17.2671 7.87747 17.6735 7.90052 17.8346C7.90821 17.8499 7.90821 17.8653 7.90052 17.8729C7.85442 18.0033 7.78526 18.1335 7.7161 18.2486L7.60083 18.4633C7.74684 18.4479 7.90052 18.4173 8.03885 18.3712L8.41538 18.0262H8.43844C8.71507 18.0262 9.06088 17.4435 9.29141 17.2749C9.52194 17.1062 9.42204 16.4161 9.52194 15.8717V15.887V15.8564C9.52194 15.8333 9.545 15.7874 9.56037 15.7413C9.57574 15.6953 9.62952 15.519 9.66795 15.3963C9.72942 15.197 9.76785 14.9899 9.79859 14.7829C9.80627 14.7599 9.82164 14.7215 9.837 14.6985ZM43.6486 17.4972C43.687 17.5662 43.7101 17.6505 43.7101 17.7349C43.7101 17.8422 43.687 17.9419 43.6409 18.0339C43.5487 18.2409 43.6102 18.2946 43.2183 20.1961V20.2652L43.1568 20.2498C42.8955 20.1808 42.6343 20.0734 42.4037 19.9354C41.5353 19.092 41.3049 19.0383 40.936 19.0383H40.6363V18.9923C40.6363 18.9693 40.6363 18.954 40.6363 18.931C40.6363 18.6396 41.1281 17.5279 41.2126 17.0448C41.2665 16.5158 41.2895 15.9867 41.2818 15.45C41.2895 15.2736 41.2895 15.0973 41.2818 14.9209C41.228 14.4302 41.1358 13.9472 41.0205 13.4641C40.8745 12.7893 40.6132 12.1223 40.4365 12.107H40.3827V12.0532C40.4289 11.6775 40.5364 11.1332 40.5364 10.9185C40.5441 10.8955 40.5441 10.8801 40.5364 10.8572C40.2982 10.3971 39.814 9.49234 39.5297 9.34663C39.5374 9.42334 39.5451 9.49234 39.5451 9.56897C39.5297 9.7914 39.4605 9.9984 39.353 10.1901C39.2762 10.3051 39.2223 10.4355 39.1917 10.5657V10.5888C39.1917 11.0181 39.6142 14.4455 39.6142 14.7675V14.8136L39.5297 14.8826C39.5144 14.8979 39.5067 14.9133 39.499 14.9286C39.4683 14.9669 39.4529 15.0129 39.4529 15.0589C39.5144 15.1509 39.5605 15.2429 39.5989 15.3503C39.5989 15.5496 39.6297 15.7874 39.6297 16.0327C39.645 16.3701 39.5913 16.6998 39.4836 17.0141C39.5067 17.3898 39.6527 18.2716 39.6527 18.701C39.6603 18.7546 39.6603 18.8007 39.6527 18.8543C39.6142 18.908 39.5682 18.954 39.5067 18.9847C39.5221 19.092 39.5297 19.1994 39.5297 19.3067C39.5221 19.6671 39.4683 20.0275 39.376 20.3801L39.3299 20.5872L39.2608 20.3878C38.9841 19.621 38.5077 18.9464 37.8622 18.4403C37.3857 18.0416 37.0016 17.9265 36.9708 17.6889C36.9708 17.6889 37.5471 15.6646 37.7931 15.4269C37.8238 15.3503 37.8315 15.2736 37.8238 15.1893C37.8238 15.0359 37.8084 14.8826 37.7853 14.7369C37.7392 14.7139 37.6855 14.6909 37.6394 14.6756L37.6086 14.6602V14.6219C37.6086 14.5912 37.6086 14.0621 37.6086 13.3951C37.6086 12.1146 37.6086 10.2821 37.6086 10.0904C37.5779 9.98306 37.5625 9.87574 37.5471 9.76071H37.5241L37.4473 9.06291C37.3781 8.96331 37.3397 8.77928 37.3089 8.77157H37.2859V8.71029C37.2859 8.71029 37.2859 8.5339 37.2859 8.36522C37.2859 8.28854 37.2859 8.21187 37.2859 8.15053C37.2551 8.08152 37.2398 8.00484 37.2321 7.92817C37.2244 7.84383 37.209 7.76715 37.1859 7.69047L37.1553 7.67514V7.63681C37.1553 7.63681 37.1553 7.62147 37.1553 7.58313C37.163 7.42211 37.1322 7.25343 37.0784 7.10008C37.0246 6.98507 37.0016 6.85473 37.0169 6.72438C37.0169 6.61703 37.0016 6.50202 36.9862 6.39467H36.9708V5.55125C36.8786 5.48224 36.8171 5.38257 36.8018 5.26755C36.8018 5.24456 36.8018 5.22155 36.8018 5.21388C36.771 5.16021 36.7249 5.1142 36.6634 5.08353H36.6404V5.05287C36.6097 4.79984 36.602 4.54682 36.602 4.30145C36.602 4.04843 36.6097 3.7954 36.6404 3.55004V3.51937C36.9093 3.25868 37.6624 2.8753 38.1543 2.18523C38.0313 2.13922 37.7085 2.03955 37.6547 2.02421L37.6317 2.05488C37.601 2.10089 37.5625 2.13156 37.5087 2.15456C37.4549 2.17756 37.3935 2.1929 37.332 2.20057C37.2705 2.1929 37.209 2.17756 37.1553 2.13922H37.1245V2.10089C37.0246 1.75585 36.8095 1.45682 36.5175 1.25746C36.2331 1.00444 35.9795 0.858754 35.8873 0.782084L35.2879 0.651735V0.529057L37.6624 0.467716C37.7853 0.391041 37.9314 0.352705 38.0774 0.360372C38.2004 0.352705 38.3079 0.421711 38.3541 0.536723H39.2147H39.2531L39.4299 0.628734L39.8832 0.774416L40.5287 0.966103H40.6824C40.7516 0.958431 40.813 0.958431 40.8822 0.966103C41.1665 1.01978 41.4278 1.15012 41.6353 1.34181C41.7506 1.45682 41.8812 1.56417 42.0118 1.65617H42.0502L42.8878 3.41969C42.9186 3.54237 42.9263 3.67272 42.9186 3.7954C42.9186 4.09443 42.8955 4.47014 42.8955 4.47014V4.50081H42.8725C42.8494 4.55448 42.8264 4.60815 42.811 4.66183C42.7956 4.73083 42.7649 4.79984 42.7341 4.86885C42.7341 4.96086 42.7341 5.0682 42.7341 5.16021C42.7341 5.3749 42.7341 5.53592 42.7341 5.57426C42.4268 6.77805 41.8581 7.74415 40.813 7.78249C40.813 7.92817 40.813 8.02018 40.813 8.08152C40.8207 8.16586 40.7823 8.25021 40.7132 8.30387H40.7516C40.8745 8.30387 40.9821 8.25787 41.1281 8.25787C41.3202 8.25787 41.5354 8.36522 41.8812 8.79463C42.0349 8.91728 42.1117 9.10894 42.0963 9.30068C42.0963 9.339 42.0963 9.34663 42.1271 9.34663C42.2116 9.37731 42.2884 9.408 42.3653 9.44631C42.4114 9.46937 42.4421 9.51531 42.4421 9.56897C42.4421 9.58431 42.4421 9.60737 42.4421 9.62271C42.4421 9.69171 42.4652 9.753 42.4959 9.81437C42.5267 9.9984 42.5651 10.1824 42.6266 10.3587C42.6957 10.6501 42.7188 10.9569 42.7111 11.2558C42.7111 11.5242 42.7341 11.7926 42.7803 12.0609C42.811 12.0916 42.8264 12.1376 42.8264 12.176C42.8264 12.2296 42.8417 12.291 42.8571 12.3523C42.8571 12.4366 42.8955 12.5133 42.957 12.5593C42.9801 12.5593 43.0031 12.544 43.0262 12.5363L43.08 12.498L43.1107 12.5593C43.1952 12.7203 43.395 14.3458 43.4181 14.4762V14.4992V14.5222C43.3643 14.7139 43.3258 14.9209 43.3182 15.1203C43.3643 15.1509 43.4258 15.1739 43.4872 15.1816H43.5103V15.2046C43.6179 15.3886 43.6947 15.5956 43.7331 15.8026V15.8257V15.8487C43.6947 15.8947 43.6717 15.956 43.6717 16.0173C43.7024 16.2014 43.7254 16.3777 43.7331 16.5617C43.7254 16.8454 43.6947 17.1368 43.6332 17.4129L43.6486 17.4972ZM40.6593 5.77361C40.6593 5.65093 40.6747 5.53592 40.6977 5.41323V5.33656H40.7362L40.7593 5.28289C40.7746 5.23689 40.79 5.19088 40.8207 5.15254V4.82284C40.8361 4.76151 40.8438 4.70016 40.8361 4.63115C40.8361 4.4088 40.7746 4.18644 40.6593 3.98709C40.6593 3.98709 40.4134 3.63438 40.1138 3.28168C39.8217 2.92898 39.4683 2.58394 39.3299 2.59161H39.1917V7.42211H39.3837C39.4452 7.42978 39.5067 7.42978 39.5682 7.42211C39.7987 7.37611 40.0138 7.2611 40.1829 7.09241C40.375 6.6937 40.5287 6.28733 40.6593 5.86562C40.6593 5.84261 40.6593 5.81194 40.6593 5.77361ZM49.8884 7.72881C49.9038 7.99718 49.8807 8.2732 49.8269 8.54157C49.7808 8.54157 49.704 8.84057 49.6041 8.96331C49.6041 9.00163 49.6041 9.03994 49.6041 9.08597C49.6041 9.28534 49.6271 9.51531 49.6271 9.73766C49.6348 9.9294 49.6041 10.1134 49.5195 10.2821C49.435 10.4891 49.3044 10.6808 49.143 10.8418L48.9816 11.6775C48.9201 11.8693 48.8817 12.0686 48.8587 12.2679C48.8587 12.4213 48.9509 13.6481 48.9509 14.5682C48.9663 14.8826 48.9432 15.197 48.8894 15.5113C48.7895 15.7797 48.7511 16.0634 48.7665 16.3547C48.7665 16.4314 48.7665 16.5158 48.7665 16.6001C48.7818 16.9221 48.7357 17.2365 48.6281 17.5431L48.4591 18.4633C48.3976 18.7239 48.2823 18.9693 48.1209 19.1841C48.0825 19.2837 48.0287 19.3757 47.9442 19.4523C47.8905 19.483 47.8443 19.5214 47.8059 19.5674C47.7368 19.7591 47.3986 19.8051 47.0144 19.9431C46.6378 20.0275 46.269 20.1424 45.9079 20.2958H45.8618C45.685 20.2958 45.4622 20.0888 45.3776 20.0965C45.2547 20.2191 45.0856 20.2958 44.9089 20.3035C44.6937 20.3495 44.4709 20.3725 44.248 20.3725C44.1865 20.3801 44.1327 20.3725 44.0789 20.3495L44.0021 20.3111L44.0482 20.2345C44.3479 19.9278 44.5323 19.5291 44.5707 19.0997C44.5707 19.0767 44.5707 19.046 44.5707 19.0154C44.5477 18.7086 44.4862 18.4096 44.3787 18.1183L44.3556 18.0645L44.4093 18.0416C44.6476 17.9572 45.1394 17.7272 45.101 17.6352C45.1087 17.6122 45.1087 17.5892 45.101 17.5662H45.0779C45.0241 17.5738 44.9703 17.5431 44.9473 17.4972L44.7552 17.0218L44.4248 16.2704L44.7244 13.2801C44.3787 12.7587 44.125 12.1836 43.9867 11.5779V11.0949C43.9867 10.9569 43.8407 10.9338 43.8254 10.7192C43.8254 10.7192 43.787 10.1288 43.787 9.684C43.7793 9.53066 43.7946 9.37731 43.8177 9.2316C43.7793 9.19328 43.7331 9.1626 43.6947 9.132L43.664 9.10131L43.7331 7.96651C43.7024 7.88217 43.6793 7.79782 43.6717 7.71348C43.6563 7.6138 43.6409 7.51413 43.6179 7.41445L43.6102 7.36845V4.01775L43.6409 4.00242C43.687 3.97175 43.7331 3.93341 43.7793 3.89508V2.60694H43.8099C43.8561 2.5686 43.9022 2.53027 43.9483 2.48427V1.55649C43.7793 1.39548 42.5574 0.214689 42.4882 0.15335L42.4037 0.0536733H43.3489V0.0843427C43.3797 0.138015 43.4104 0.184019 43.4488 0.230025H44.0021V0.276029C44.0021 0.437047 44.7783 0.529057 45.1394 0.935434H45.6773V0.966103C45.7311 1.05045 45.7926 1.12712 45.8618 1.2038H46.3996L46.4151 1.23447C46.4457 1.28814 46.4765 1.33414 46.5149 1.38015H47.2219V1.41081C47.2527 1.46449 47.2833 1.51049 47.3217 1.55649H48.0748L48.0903 1.58717C48.3285 1.98588 48.8126 2.24657 48.9124 2.43059C49.4657 3.59605 49.3581 3.69573 49.5503 3.8184H49.5733L49.5273 5.50525C49.5657 5.58959 49.5963 5.6816 49.6194 5.77361C49.6425 5.86562 49.6732 5.96529 49.7116 6.04964H49.7271V6.08031C49.7271 6.08798 49.8807 7.01574 49.8884 7.72881ZM47.4063 10.5045C47.3833 10.2284 47.5062 9.96771 47.7291 9.79903C47.7598 9.63034 47.875 8.84057 48.1056 8.61823V7.00807C47.9827 6.84705 47.8981 6.66303 47.875 6.46368C47.8443 6.29499 47.7982 6.12632 47.7521 5.95763C47.56 5.6816 47.1681 5.58192 47.1297 5.14488C46.7531 5.10654 46.6839 4.76917 46.5303 4.79984C46.2229 4.79984 46.0539 4.77684 45.8233 4.77684H45.5697L45.5083 5.39024L45.5543 5.60493C45.5543 5.60493 45.6235 7.38378 45.6235 8.05085C45.6235 8.10452 45.6235 8.15819 45.6235 8.19653C45.6235 8.2272 45.662 8.26554 45.6773 8.30387L45.7465 8.46489V8.48789C45.7695 8.84057 45.8694 9.18566 46.0385 9.49234H46.0692L46.0461 17.2978C46.4919 16.7918 46.7685 16.1553 46.83 15.4883C46.83 15.4653 46.83 15.4347 46.83 15.3886C47.0144 14.7599 47.2065 14.5528 47.2757 14.1925C47.2757 13.9931 47.2757 10.9875 47.3909 10.5888C47.3986 10.5581 47.3986 10.5274 47.4063 10.5045ZM19.5809 17.2518L19.481 17.2058C19.4042 17.1752 19.3197 17.1521 19.2428 17.1521H19.1044H19.066C18.9815 17.1598 18.8893 17.1905 18.8201 17.2365H18.7894L18.7587 17.2135C18.5511 17.1521 18.336 17.1291 18.1131 17.1445C17.6829 17.1368 17.2602 17.1828 16.8453 17.2825C16.753 17.4205 16.6224 17.5279 16.4687 17.5815C16.4457 17.5815 16.4149 17.5662 16.3995 17.5509C16.315 17.4972 16.2381 17.4358 16.169 17.3668L16.1152 17.3285L16.1536 17.2749C16.63 16.6845 16.3611 16.8608 16.9067 16.5004C17.0143 15.8026 17.0681 15.0896 17.0451 14.3841V14.2232H17.0681C17.2141 14.1081 17.2064 14.1081 17.2141 14.0698C17.2141 14.0315 17.2141 13.9931 17.2141 13.9165C17.1372 13.7478 17.0835 13.5638 17.0527 13.3874C17.0451 13.1343 17.1141 12.8814 17.2602 12.6743L17.2218 5.69693H17.2449C17.2833 5.66626 17.3217 5.63559 17.3601 5.61259H17.3831C17.3831 5.60493 17.3831 5.59725 17.3831 5.59725C17.3524 5.53592 17.2909 5.48991 17.2218 5.47458V5.45157L16.9989 1.89387C16.9374 1.75585 16.8068 1.65617 16.6531 1.64084C16.5071 1.63317 16.3765 1.54116 16.3073 1.41081C16.2151 1.43382 16.1152 1.41081 16.0383 1.34948C15.9846 1.26513 15.9154 1.19613 15.8309 1.14245L15.7771 1.10412L15.8155 1.05045C15.877 0.973774 15.9538 0.874089 15.9769 0.835755L15.9999 0.78975H16.0461C16.5916 0.858754 17.1372 0.88176 17.6829 0.866426C18.1593 0.88176 18.6357 0.858754 19.1121 0.797418L19.1583 0.782084L19.1813 0.828087C19.2428 0.9201 19.3119 1.00444 19.3811 1.08111V1.43382H19.335C18.9354 1.54116 18.505 1.9092 18.5127 2.20823C18.5127 2.44593 18.5435 2.43825 18.5589 2.44593C18.6588 2.50726 18.7048 2.62227 18.6741 2.73729C18.6818 2.85231 18.6203 2.95965 18.5281 3.02865C18.4666 3.05932 18.4282 3.113 18.4282 3.18201C18.4282 3.70339 18.505 5.12187 18.505 6.318C18.5127 6.80871 18.4897 7.3071 18.4359 7.79015C18.4821 7.85916 18.505 7.93584 18.505 8.01251C18.5127 8.09685 18.5358 8.18886 18.5589 8.26554H18.5819L18.6741 8.77929L18.6434 8.80226C18.5896 8.84057 18.5358 8.87897 18.4897 8.92491C18.3975 9.03994 18.3591 9.17794 18.3668 9.32366C18.3668 9.477 18.3975 9.62271 18.3975 9.69934C18.3898 9.76071 18.3898 9.822 18.3975 9.891C18.3975 10.0597 18.4129 10.2207 18.4513 10.3818C18.4666 10.4891 18.4513 10.7038 18.4743 10.8265C18.4666 10.8418 18.4666 10.8572 18.4743 10.8725H18.4974V10.9031C18.5127 11.0105 18.5205 11.1178 18.5205 11.2175C18.5205 11.3402 18.5127 11.4705 18.4974 11.5932V11.6163H18.4821C18.4282 11.6546 18.3744 11.6929 18.3283 11.7389C18.2438 11.8079 18.19 11.9152 18.19 12.0303C18.2668 12.3447 18.3207 12.659 18.3513 12.981V13.0424C18.4052 13.2571 18.4821 13.4641 18.5742 13.6557L18.5973 13.6711L18.5281 14.8979H18.505C18.4513 14.9286 18.3975 14.9669 18.3591 15.0206C18.3129 15.0742 18.2899 15.1432 18.2899 15.2122C18.3053 15.3426 18.3283 15.4653 18.3668 15.588C18.505 16.1477 18.459 15.8333 19.481 16.5694H19.504L19.5809 17.2518ZM25.3827 20.8172H23.0927V20.7865C23.0619 20.7405 23.0313 20.6869 22.9928 20.6409H22.4395V20.6102C22.4164 20.5335 22.355 20.4722 22.2705 20.4568H22.1705C22.0553 20.4415 21.9477 20.3801 21.8862 20.2804H20.2955C20.1342 20.2881 19.9805 20.1961 19.919 20.0427C19.5963 20.0198 17.5445 20.0121 16.4687 20.0121H15.7617L15.7463 19.9815C15.6081 19.8588 15.4467 19.7821 15.2699 19.7438H14.6705C14.5707 19.8435 13.7176 20.3725 13.6485 20.5948L13.6331 20.6409H13.587C13.2643 20.5872 12.9415 20.5641 12.6188 20.5565C12.4497 20.5412 12.273 20.5719 12.1193 20.6331L12.0655 20.6638L12.0348 20.5872C12.004 20.5258 11.9502 20.4722 11.8888 20.4339L11.835 20.3955L11.8734 20.3418C11.9656 20.2728 12.0194 20.1731 12.0271 20.0658V20.0427L12.5112 19.7897C12.7033 19.6058 12.6726 19.6824 13.0875 19.3067V18.5553H13.1106C13.1798 18.5247 13.2335 18.4633 13.2489 18.3866C13.2335 18.3099 13.1874 18.2486 13.1106 18.2179L13.0722 18.1796V16.8301H13.1182C13.1643 16.7994 13.2105 16.7611 13.2566 16.7228V16.1247H13.2796C13.4333 16.0097 13.418 16.0251 13.418 15.9944C13.418 15.9637 13.418 15.933 13.418 15.8717C13.4026 15.68 13.2873 15.519 13.1182 15.4347L13.0722 15.404V13.1421H13.1106C13.1721 13.1267 13.2259 13.0807 13.2412 13.0194C13.2182 12.8277 13.2028 12.6284 13.2028 12.4366C13.2028 12.2373 13.2182 12.0303 13.2412 11.8309V11.8079H13.2643C13.3104 11.7772 13.3565 11.7389 13.4026 11.7006V9.9294H13.4257C13.5255 9.82971 13.5947 9.69171 13.6101 9.55371C13.6101 9.55371 13.6101 9.55371 13.6101 9.53066C13.6024 9.39266 13.5486 9.26229 13.4487 9.1626H13.4257V6.66303C13.3872 6.6247 13.3411 6.58636 13.2873 6.55569H13.2643V5.19088H13.2873C13.3949 5.10654 13.4948 5.00686 13.587 4.90719C13.587 4.81517 13.6178 4.46247 13.6178 4.15577C13.6178 4.01775 13.6101 3.87207 13.587 3.73406C13.5409 3.69573 13.4948 3.65739 13.441 3.61905L13.3872 3.58071L13.441 3.51171C13.5794 3.26634 13.6715 3.00565 13.71 2.72962C13.6715 2.41526 13.5717 2.10089 13.4257 1.81719C13.3411 1.73285 13.2182 1.70218 13.1029 1.72518H13.0184V1.74819L12.9492 1.70218C12.7571 1.55649 13.0107 1.46449 12.127 0.812753L12.0732 0.774416L12.1116 0.720743C12.2038 0.651736 12.2576 0.552059 12.2653 0.437047V0.391041H12.5573L12.5727 0.421711C12.6034 0.475383 12.6342 0.521389 12.6726 0.567393H13.9866V0.598063C14.0404 0.766748 14.1864 0.897094 14.3631 0.935434C14.417 0.935434 14.4631 0.912428 14.5399 0.912428C14.5783 0.912428 14.6091 0.927763 14.6398 0.950769C14.8626 1.22679 15.1009 1.49516 15.3621 1.73285H15.3852V3.38902L15.3621 3.40436C15.2699 3.43503 15.2161 3.52704 15.2238 3.61905C15.2776 3.76473 15.3852 3.88741 15.5235 3.94875H15.5465V4.70016V4.77684C15.5005 4.80751 15.4544 4.84585 15.4083 4.88418V8.36522C15.5389 8.44189 15.6465 8.54924 15.731 8.67189C15.8232 9.03994 15.854 9.42334 15.8232 9.80666C15.8232 10.8572 15.7387 12.2526 15.7387 12.2526V12.2833H15.7156C15.6695 12.314 15.6234 12.3523 15.5773 12.3906V13.5714C15.6234 13.6098 15.6695 13.6481 15.7156 13.6788H15.7387V13.7018C15.7463 13.8091 15.7463 13.9165 15.7387 14.0238C15.7387 14.2998 15.7387 14.6372 15.7387 14.6449V14.6909L15.7079 14.7292C15.5081 14.7599 15.5235 14.8902 15.4389 15.1432C15.5389 15.2122 15.5926 15.3273 15.5926 15.45V15.5037C15.6157 15.6417 15.5542 15.7797 15.4313 15.841V16.5924L15.4083 16.6077C15.3621 16.6384 15.316 16.6767 15.2699 16.7151V17.8269L15.2469 17.8422C15.1701 17.8959 15.1162 17.9802 15.1085 18.0723C15.1085 18.0876 15.1085 18.1106 15.1085 18.1259C15.2546 18.2409 15.316 18.425 15.2853 18.609C15.585 18.609 15.8079 18.6473 16.0845 18.6473C16.2459 18.6473 16.4073 18.632 16.5686 18.609C16.6839 18.4326 16.8529 18.2946 17.0451 18.2103H17.1219C17.3985 18.2103 17.9057 18.4633 18.459 18.4633C18.7433 18.4709 19.0199 18.3943 19.2581 18.2409C19.3119 18.1566 19.3965 18.1029 19.4964 18.0952C19.6962 18.0569 19.9036 18.0339 20.1111 18.0262C20.6106 17.9955 21.2945 17.9802 21.9784 17.9802C23.4385 17.9802 24.9447 18.0339 24.9447 18.0339H25.0061V20.1271L25.0215 20.1731L25.0983 20.3265C25.1675 20.4568 25.2367 20.5795 25.3212 20.7021L25.3827 20.8172ZM50.5877 1.13479C50.5877 1.34181 50.4878 1.61784 49.8116 1.61784C49.1277 1.61784 49.0277 1.34181 49.0277 1.13479V0.483051C49.0277 0.283697 49.1353 0 49.8116 0C50.4878 0 50.5877 0.276029 50.5877 0.483051V1.13479ZM50.457 0.467716C50.457 0.314367 50.3494 0.130348 49.8116 0.130348C49.2736 0.130348 49.1661 0.314367 49.1661 0.467716V1.14245C49.1661 1.2958 49.2736 1.48749 49.8116 1.48749C50.3494 1.48749 50.457 1.30347 50.457 1.15012V0.467716ZM49.6041 0.943097V1.2728C49.6118 1.28814 49.6041 1.30347 49.5887 1.30347H49.581H49.4965C49.4811 1.30347 49.4657 1.28814 49.4657 1.2728C49.4657 1.2728 49.4657 1.2728 49.4657 1.26513V0.352704C49.4581 0.33737 49.4657 0.322035 49.4811 0.322035C49.4888 0.322035 49.4888 0.322035 49.4965 0.322035H49.85C50.1343 0.322035 50.2035 0.460049 50.2035 0.582729V0.674738C50.2035 0.78975 50.1266 0.889431 50.0114 0.912428L50.1651 1.26513C50.1727 1.28047 50.1651 1.2958 50.1496 1.2958C50.142 1.2958 50.142 1.2958 50.1343 1.2958H50.0498C50.0344 1.2958 50.019 1.28047 50.019 1.26513L49.8807 0.935434H49.6041V0.943097ZM49.6041 0.444714V0.82042H49.8346C49.9345 0.843423 50.0344 0.782083 50.0575 0.682406C50.0575 0.674739 50.0575 0.667071 50.0575 0.659403V0.598063C50.0421 0.498386 49.9498 0.421712 49.85 0.437047C49.8423 0.437047 49.8346 0.437047 49.8269 0.437047L49.6041 0.444714Z" fill="#002B56" fill-opacity="0.6"/>
<path d="M7.57558 23.9848H6.20006V22.1216H7.56021V22.4666L6.66881 22.459V22.85H7.52178V23.195H6.66881V23.6398H7.57558V23.9848Z" fill="#002B56" fill-opacity="0.6"/>
<path d="M10.9869 23.9445H10.618L9.64979 22.8173V23.9445H9.21178V22.1886H9.61137L10.5489 23.2621V22.1963H10.9869V23.9445Z" fill="#002B56" fill-opacity="0.6"/>
<path d="M14.8282 22.4584H14.1519V23.9842H13.6909V22.4584H13.007V22.1133H14.8282V22.4584Z" fill="#002B56" fill-opacity="0.6"/>
<path d="M17.7816 23.9855L16.4138 23.9779V22.1301H17.7585V22.4751H16.8748V22.8585H17.7201V23.2035H16.8748V23.6405L17.7816 23.6482V23.9855Z" fill="#002B56" fill-opacity="0.6"/>
<path d="M20.6145 22.106C20.9219 22.0753 21.1832 22.3053 21.2139 22.6044C21.2139 22.612 21.2139 22.6274 21.2139 22.635C21.2139 22.8344 21.0909 23.0184 20.8989 23.0874C21.0909 23.1794 21.1448 23.4094 21.3983 23.9462H20.8835C20.6837 23.5705 20.6145 23.1948 20.3686 23.1948H20.238V23.9462H19.7846V22.106H20.6145ZM20.238 22.865H20.4762C20.5915 22.8804 20.7068 22.8037 20.7221 22.6887C20.7221 22.681 20.7221 22.6657 20.7221 22.658C20.7221 22.543 20.6299 22.4433 20.5146 22.4433C20.4993 22.4433 20.4839 22.4433 20.4609 22.451H20.2303V22.865H20.238Z" fill="#002B56" fill-opacity="0.6"/>
<path d="M24.6679 22.4751H23.9917V23.9932H23.5229V22.4674H22.839V22.1301H24.6679V22.4751Z" fill="#002B56" fill-opacity="0.6"/>
<path d="M27.8749 23.9929H27.3908L27.2447 23.6171H26.4379L26.2842 23.9929H25.8231L26.5455 22.1986H27.068L27.8749 23.9929ZM26.8221 22.628L26.5608 23.3258H27.1141L26.8221 22.628Z" fill="#002B56" fill-opacity="0.6"/>
<path d="M29.97 23.9535H29.6241V22.1133H29.97V23.9535Z" fill="#002B56" fill-opacity="0.6"/>
<path d="M33.7116 23.9924H33.3351L32.3283 22.827V23.9924H31.875V22.1752H32.2899L33.2582 23.287V22.1829H33.7116V23.9924Z" fill="#002B56" fill-opacity="0.6"/>
<path d="M37.2128 22.1216H37.6201V24.0002H37.1513V22.8271L36.6441 23.4175H36.575L36.0678 22.8271V24.0002H35.599V22.1216H36.0063L36.6057 22.8194L37.2128 22.1216Z" fill="#002B56" fill-opacity="0.6"/>
<path d="M41.0608 23.9701L39.7391 23.9625V22.1837H41.0455V22.5133H40.1848V22.8814H41.0071V23.211H40.1848V23.6405H41.0608V23.9701Z" fill="#002B56" fill-opacity="0.6"/>
<path d="M44.6751 23.993H44.2909L43.2688 22.8122V23.993H42.8078V22.1451H43.2304L44.214 23.2799V22.1528H44.6751V23.993Z" fill="#002B56" fill-opacity="0.6"/>
<path d="M48.0975 22.459H47.4212V23.9695H46.9601V22.459H46.2915V22.1216H48.0975V22.459Z" fill="#002B56" fill-opacity="0.6"/>
</g>
</g>
<defs>
<clipPath id="clip0_1_236">
<rect width="55" height="24" fill="white" transform="translate(0.25)"/>
</clipPath>
<clipPath id="clip1_1_236">
<rect width="47.1429" height="24" fill="white" transform="translate(4.17857)"/>
</clipPath>
</defs>
</svg>
