<svg width="137" height="24" viewBox="0 0 137 24" fill="none" xmlns="http://www.w3.org/2000/svg">
<g clip-path="url(#clip0_1_228)">
<g clip-path="url(#clip1_1_228)">
<mask id="mask0_1_228" style="mask-type:luminance" maskUnits="userSpaceOnUse" x="10" y="0" width="117" height="24">
<path d="M126.459 0H10.7899V24H126.459V0Z" fill="white"/>
</mask>
<g mask="url(#mask0_1_228)">
<path d="M118.166 22.2713V14.3049L124.288 14.5258L124.927 12.9027H118.17V7.2413H121.354C123.044 7.2413 123.568 7.28451 124.907 7.70229L125.675 7.94238L125.435 5.7479H115.28L115.433 6.31933C115.587 6.89076 115.716 7.83194 115.716 8.9748V20.5138C115.716 21.6759 115.649 22.5114 115.476 23.1885L115.323 23.7599H126.118L126.468 21.4982L125.767 21.7623C125.023 22.0456 123.553 22.2665 122.189 22.2665H118.175L118.166 22.2713ZM112.811 0.417767C112.811 0.288115 112.811 0.177671 112.793 0.0432173C112.682 0.0192077 112.553 0 112.442 0C110.425 0 108.951 1.40216 108.951 3.44298C108.951 3.57263 108.951 3.68307 108.975 3.81753C109.085 3.84153 109.215 3.86074 109.325 3.86074C111.342 3.86074 112.811 2.43458 112.811 0.417767ZM109.172 8.9748V20.5138C109.172 21.6759 109.061 22.5114 108.888 23.1885L108.735 23.7599H112.072L111.918 23.1885C111.741 22.5066 111.635 21.6759 111.635 20.5138V8.994C111.635 7.83193 111.745 6.9964 111.918 6.31933L112.072 5.7479H108.735L108.888 6.31933C109.066 7.0012 109.172 7.83194 109.172 8.9748ZM105.815 23.7599L106.276 21.4982L105.594 21.7191C104.802 21.9832 103.4 22.2665 101.47 22.2665H98.9677V8.97C98.9677 7.80792 99.0543 6.97239 99.2317 6.31453L99.3852 5.7431H96.048L96.2017 6.31453C96.3792 6.9964 96.5086 7.82713 96.5086 8.97V20.6626C96.5086 22.1128 96.4417 22.6603 96.2686 23.2749L96.1344 23.7599H105.81H105.815ZM90.982 23.7599H94.425L93.964 23.0781C93.3733 22.1993 92.7107 21.0612 92.1008 19.6111L86.156 5.39256H85.6279L79.3518 19.7647C78.6506 21.3686 78.2329 22.2665 77.7047 23.0541L77.2437 23.7551H79.5678C79.9423 22.6603 80.3794 21.5415 80.8404 20.4417L82.1129 17.3925H88.4994L89.6183 20.1153C90.1224 21.3206 90.5642 22.5498 90.9772 23.7551L90.982 23.7599ZM87.9328 16.0384H82.689L85.3206 9.76234L87.9328 16.0384ZM77.4694 14.4826C77.4694 9.50297 73.8919 5.7527 68.2545 5.7527H62.4202L62.5738 6.32413C62.7515 7.006 62.8572 7.83674 62.8572 8.9796V20.6722C62.8572 22.1224 62.7707 22.6699 62.5931 23.2845L62.4634 23.7695H68.5186C74.3337 23.7695 77.4694 19.03 77.4694 14.4874V14.4826ZM75.0972 15.4718C75.0972 19.5102 72.509 22.2713 68.6243 22.2713H65.3109V7.2413H67.8559C72.0912 7.2413 75.0972 10.1608 75.0972 15.467V15.4718ZM59.4766 6.32413L59.6303 5.7527H57.2629L57.4165 6.32413C57.5942 7.006 57.7239 7.83674 57.7239 8.9796V17.0757C57.7239 20.1489 55.7262 22.036 52.8547 22.036C49.9832 22.036 48.1824 20.1921 48.1824 17.0757V8.9796C48.1824 7.81753 48.2689 6.98199 48.4466 6.32413L48.6002 5.7527H45.2677L45.4213 6.32413C45.599 7.006 45.7287 7.83674 45.7287 8.9796V17.3397C45.7287 21.4406 48.5378 24.0096 52.485 24.0096C56.4322 24.0096 59.2221 21.4406 59.2221 17.1189V8.9796C59.2221 7.81753 59.3085 6.98199 59.4862 6.32413H59.4766ZM41.3974 23.7647H44.8404L44.3794 23.0829C43.7887 22.2041 43.1309 21.066 42.5162 19.6159L36.5714 5.39736H36.0432L29.7671 19.7695C29.066 21.3734 28.6482 22.2713 28.1201 23.0589L27.6591 23.7599H29.9832C30.3577 22.6651 30.7947 21.5463 31.2557 20.4465L32.5282 17.3973H38.9148L40.0336 20.1201C40.5378 21.3254 40.9748 22.5546 41.3926 23.7599L41.3974 23.7647ZM38.3481 16.0432H33.1044L35.7359 9.76714L38.3481 16.0432ZM13.3589 14.2425C13.3589 10.1176 16.2545 6.91477 20.2497 6.91477C22.4202 6.91477 24 8.2545 25.383 10.1608L25.9544 10.9484L25.8247 7.0012C24.2689 6.03602 22.4682 5.42137 20.2497 5.42137C15.0924 5.42137 10.7899 9.93994 10.7899 15.1405C10.7899 20.3409 14.5834 24.0048 19.9616 24.0048C22.2233 24.0048 24.2641 23.3661 25.6902 22.425L26.1272 19.0924L25.0949 20.2977C23.8896 21.7239 22.5738 22.6026 20.2449 22.6026C16.5378 22.6026 13.3541 19.3325 13.3541 14.2425H13.3589Z" fill="#002B56" fill-opacity="0.6"/>
</g>
</g>
</g>
<defs>
<clipPath id="clip0_1_228">
<rect width="136" height="24" fill="white" transform="translate(0.75)"/>
</clipPath>
<clipPath id="clip1_1_228">
<rect width="116.571" height="24" fill="white" transform="translate(10.4643)"/>
</clipPath>
</defs>
</svg>
