<svg width="94" height="24" viewBox="0 0 94 24" fill="none" xmlns="http://www.w3.org/2000/svg">
<g clip-path="url(#clip0_1_188)">
<mask id="mask0_1_188" style="mask-type:luminance" maskUnits="userSpaceOnUse" x="7" y="0" width="80" height="24">
<path d="M86.51 0H7.96448V24H86.51V0Z" fill="white"/>
</mask>
<g mask="url(#mask0_1_188)">
<path fill-rule="evenodd" clip-rule="evenodd" d="M19.0192 0.290538C21.0556 0.21781 23.4556 0.654174 23.8919 2.036C24.6191 4.36327 20.9101 7.78145 17.7101 9.45417C16.9101 9.89054 16.4737 9.96323 16.2556 9.96323C16.0373 9.96323 16.0373 9.74509 16.1101 9.59963C16.2556 9.38149 16.7646 8.87234 17.4191 8.29054C21.0556 5.45417 22.2191 3.34508 21.5646 2.54508C21.1283 2.036 19.3101 1.59962 17.3465 1.59962C16.8374 1.59962 15.4555 1.74508 15.3101 1.23599C15.2374 0.872356 17.0555 0.363265 19.0192 0.290538Z" fill="#002B56" fill-opacity="0.6"/>
<path fill-rule="evenodd" clip-rule="evenodd" d="M14.8011 11.0531C16.5466 10.9803 18.6557 11.2712 19.8193 12.144C20.4011 12.5803 20.8375 13.4531 20.5466 14.3985C19.892 17.0894 17.3465 20.3622 11.6738 22.8349C9.85567 23.6349 8.47385 23.9258 8.18294 23.7076C7.89203 23.4894 8.76476 21.6713 9.05567 21.0894C9.9284 19.1985 11.092 17.3076 12.1829 15.6349C12.6193 14.9803 13.2011 13.8894 13.7829 14.0349C14.292 14.1076 13.7102 15.2712 13.2739 15.9985C12.6193 17.2349 10.8011 20.6531 11.3829 20.8712C12.692 21.3076 18.8739 16.5804 18.0011 13.9621C17.5648 12.7258 14.8738 12.6531 13.2011 12.6531C12.4011 12.6531 10.7284 12.8712 10.6557 12.2167C10.5829 11.7076 13.2011 11.1258 14.8011 11.0531Z" fill="#002B56" fill-opacity="0.6"/>
<path fill-rule="evenodd" clip-rule="evenodd" d="M28.1829 8.14606C29.2011 8.36425 30.0739 8.50971 30.292 8.94607C30.5102 9.45513 29.3466 9.45513 28.8375 9.45513C26.0738 9.5279 24.4739 9.5279 24.3284 10.4733C24.2557 11.637 25.492 12.8733 26.7284 14.546C27.892 16.0733 29.2011 17.6006 28.8375 19.0551C28.4012 20.8006 26.2193 21.237 24.1102 21.237C22.1466 21.237 20.2556 20.9461 19.4557 20.8006C18.4375 20.5825 18.6557 20.1461 18.8738 20.0006C19.1648 19.8552 20.8375 19.8552 22.0011 19.7824C22.9466 19.637 25.7102 19.637 26.1466 18.9097C26.6557 18.037 25.3466 16.5824 24.183 14.9824C22.7284 13.0188 21.0557 11.0552 21.9284 9.5279C23.092 7.7097 26.3648 7.78243 28.1829 8.14606Z" fill="#002B56" fill-opacity="0.6"/>
<path fill-rule="evenodd" clip-rule="evenodd" d="M70.9464 13.4541C73.1283 13.4541 74.001 12.7268 74.3646 10.9814L74.8737 8.29051C74.8737 8.14506 74.801 8.07233 74.6555 8.07233H73.5647L73.2738 9.59964L73.1283 10.3996L72.9828 11.1269C72.7646 12.1451 72.1829 12.5814 71.0919 12.5814C69.9283 12.5814 69.5646 12.1451 69.7829 11.1269C69.7829 11.1269 69.8555 10.9087 69.8555 10.836L70.0738 9.59964L70.3646 8.07233H69.2737C69.1283 8.07233 68.9828 8.14506 68.9828 8.29051L68.4738 10.9814C68.1101 12.8723 69.0556 13.4541 70.9464 13.4541ZM33.492 16.436C33.3465 17.1632 33.9282 17.5268 35.0919 18.2541C36.401 19.0542 36.6919 19.1269 36.5465 19.5632C36.4737 19.9268 36.1101 19.9268 35.5283 19.9268H33.201C32.9101 19.9268 32.7647 19.9996 32.7647 20.2905L32.6919 20.7269H35.601C36.9101 20.7269 37.7828 20.6541 38.0737 19.8542C38.2192 19.4906 38.2192 19.0542 37.8556 18.6178C37.6374 18.3996 37.4192 18.2541 37.0555 18.036C35.3828 17.0906 34.9464 17.0178 35.0192 16.5087C35.0919 16.2178 35.2374 16.2178 35.892 16.2178H37.8556C38.1465 16.2178 38.292 16.145 38.292 15.8541L38.3646 15.3451H35.892C34.5828 15.4178 33.7101 15.4178 33.492 16.436ZM46.4374 16.436C46.2919 17.1632 46.8738 17.5268 48.0374 18.2541C49.3464 19.0542 49.6374 19.1269 49.4919 19.5632C49.4192 19.9268 49.0555 19.9268 48.4737 19.9268H46.1465C45.8556 19.9268 45.7101 19.9996 45.7101 20.2905L45.6374 20.7996H48.5465C49.8556 20.7996 50.7283 20.7269 51.0192 19.9268C51.1646 19.5632 51.1646 19.1269 50.801 18.6905C50.5829 18.4724 50.3646 18.3269 50.001 18.1087C48.3282 17.1632 47.892 17.0906 47.9646 16.5814C48.0374 16.2905 48.1829 16.2905 48.8374 16.2905H50.801C51.0919 16.2905 51.2374 16.2178 51.2374 15.9269L51.3101 15.4178H48.8374C47.4556 15.4178 46.6555 15.4178 46.4374 16.436ZM79.092 16.436C78.9465 17.1632 79.5283 17.5268 80.6919 18.2541C82.001 19.0542 82.2919 19.1269 82.1465 19.5632C82.0737 19.9268 81.7101 19.9268 81.1283 19.9268H78.801C78.5101 19.9268 78.3647 19.9996 78.3647 20.2905L78.2919 20.7996H81.201C82.5101 20.7996 83.3828 20.7269 83.6737 19.9268C83.8192 19.5632 83.8192 19.1269 83.4556 18.6905C83.2374 18.4724 83.0192 18.3269 82.6555 18.1087C80.9828 17.1632 80.5464 17.0906 80.6192 16.5814C80.6919 16.2905 80.8373 16.2905 81.4919 16.2905H83.4556C83.7465 16.2905 83.892 16.2178 83.892 15.9269L83.9646 15.4178H81.4919C80.1101 15.4178 79.3101 15.4178 79.092 16.436ZM59.8192 12.436C59.9646 12.0723 59.9646 11.636 59.601 11.1996C59.3828 10.9814 59.1647 10.836 58.801 10.6178C57.1283 9.67232 56.6919 9.59964 56.7647 9.09049C56.8374 8.79958 56.9828 8.79958 57.6374 8.79958H59.601C59.892 8.79958 60.0374 8.72689 60.0374 8.43597L60.1101 7.92688H57.6374C56.2555 7.92688 55.3829 7.92688 55.1646 8.94504C55.0192 9.67232 55.601 10.036 56.7647 10.7632C58.0737 11.5633 58.3646 11.636 58.2192 12.0723C58.1465 12.436 57.7829 12.436 57.201 12.436H54.8737C54.5828 12.436 54.4374 12.5087 54.4374 12.7996L54.3647 13.3087H57.2737C58.6555 13.3814 59.4556 13.236 59.8192 12.436ZM53.5646 12.436C53.7101 12.0723 53.7101 11.636 53.3465 11.1996C53.1283 10.9814 52.9101 10.836 52.5465 10.6178C50.8737 9.67232 50.4374 9.59964 50.5101 9.09049C50.5829 8.79958 50.7283 8.79958 51.3828 8.79958H53.3465C53.6374 8.79958 53.7828 8.72689 53.7828 8.43597L53.8555 7.92688H51.3828C50.001 7.92688 49.1283 7.92688 48.9101 8.94504C48.7646 9.67232 49.3464 10.036 50.5101 10.7632C51.8192 11.5633 52.1101 11.636 51.9647 12.0723C51.8919 12.436 51.5283 12.436 50.9465 12.436H48.6919C48.401 12.436 48.2556 12.5087 48.2556 12.7996L48.1829 13.3087H51.0919C52.401 13.3814 53.2737 13.236 53.5646 12.436ZM80.7647 7.99961C80.4738 7.99961 80.3283 8.07233 80.3283 8.29051L80.2555 8.79958H82.3646L81.4919 13.3087H82.4374C82.7283 13.3087 82.8737 13.236 82.8737 12.9451L83.6737 8.79958H85.4192C85.6374 8.79958 85.7828 8.65412 85.7828 8.50869L85.8556 7.99961H80.7647ZM35.0919 9.52687C34.9464 9.52687 34.8738 9.59964 34.8738 9.67232L34.1465 13.3087H37.2738C39.0192 13.3087 40.2556 12.6542 40.6192 10.6178C40.9101 9.09049 40.2556 7.99961 38.4374 7.99961H34.6555V8.07233C34.5828 8.43597 34.5828 8.79958 35.2373 8.79958H38.001C39.3101 8.79958 39.5283 9.45418 39.2374 10.6178C38.9465 11.7814 38.5101 12.3632 37.4919 12.436H35.601L36.1829 9.38141H35.0919V9.52687ZM80.0374 12.8723C80.1101 12.6542 79.9646 12.5814 79.8191 12.5814H76.9829L77.8555 8.29051C77.8555 8.21779 77.7828 8.14506 77.7101 8.14506H76.5465L75.5283 13.4541H80.0374V12.8723ZM71.5283 15.4178H70.2919L67.9646 17.4542L66.4374 15.3451H65.201C64.9829 15.3451 64.9101 15.4905 64.8374 15.7087L63.8919 20.6541H64.9101C65.1283 20.6541 65.2737 20.5814 65.2737 20.3632L66.001 16.6542L67.1646 18.3269C67.1646 18.3996 67.3101 18.4724 67.4555 18.4724H67.9646C68.1101 18.4724 68.2555 18.3996 68.3283 18.3269L70.1465 16.6542L69.4192 20.3632C69.3465 20.5814 69.492 20.6541 69.7101 20.6541H70.7283L71.6737 15.7087C71.7465 15.5632 71.6737 15.4178 71.5283 15.4178ZM58.7283 15.7814L57.7829 20.7269H62.7283L62.801 20.2178C62.8737 19.9996 62.801 19.9268 62.5101 19.9268H59.2374L59.5283 18.4724H62.4374C62.5101 18.4724 62.5829 18.3996 62.5829 18.3269L62.7283 17.7451C62.7283 17.6723 62.7282 17.5996 62.6555 17.5996H59.7465L60.0374 16.145H63.1646C63.3101 16.145 63.4555 16.145 63.5283 15.9269L63.6738 15.2723H59.2374C58.9464 15.4178 58.801 15.4905 58.7283 15.7814ZM73.3464 15.7814L72.401 20.7269H77.3465L77.4192 20.2178C77.4919 19.9996 77.4192 19.9268 77.1283 19.9268H73.8556L74.1465 18.4724H77.0555C77.1283 18.4724 77.201 18.3996 77.201 18.3269L77.3465 17.7451C77.3465 17.6723 77.3465 17.5996 77.2738 17.5996H74.3646L74.6555 16.145H77.7828C77.9283 16.145 78.0737 16.145 78.1464 15.9269L78.2919 15.2723H73.8556C73.5647 15.4178 73.4192 15.4905 73.3464 15.7814ZM43.8191 15.5632L43.3829 17.9632C42.5828 18.1814 40.401 18.6905 40.7646 16.9451L41.0556 15.3451H39.9647C39.8192 15.3451 39.7464 15.4178 39.7464 15.4905L39.4555 16.9451C38.9465 19.7087 41.5646 19.3451 43.2374 18.836L42.8737 20.7269H43.8191C44.1101 20.7269 44.2555 20.6541 44.2555 20.3632L45.201 15.4178H44.0374C43.9646 15.4178 43.8919 15.4905 43.8191 15.5632ZM57.9282 15.9269L58.001 15.4178H52.9101C52.6192 15.4178 52.4737 15.4905 52.4737 15.7087L52.3283 16.2178H54.4374L53.5646 20.7269H54.5101C54.801 20.7269 54.9465 20.6541 54.9465 20.3632L55.7465 16.2178H57.492C57.7829 16.2178 57.8556 16.145 57.9282 15.9269ZM43.2374 10.2542C43.4556 9.23595 44.0374 8.87235 45.1283 8.87235C46.2919 8.87235 46.5828 9.30872 46.3646 10.2542C46.3646 10.2542 46.2919 10.4723 46.2919 10.5451C46.2919 10.6905 46.2192 10.9087 45.9283 10.9087H43.092L43.2374 10.2542ZM41.6374 13.3814H42.6556L42.9465 11.8542H46.0737L45.7829 13.3814H46.801C46.9464 13.3814 47.0919 13.3087 47.0919 13.1632L47.601 10.4723C47.9646 8.43597 46.801 7.99961 45.2737 7.99961C43.3829 7.99961 42.3647 8.43597 41.9283 10.4723L41.4192 13.0905C41.4192 13.3087 41.4919 13.3814 41.6374 13.3814ZM62.801 10.2542C63.0191 9.23595 63.601 8.87235 64.6919 8.87235C65.8555 8.87235 66.1464 9.30872 65.9283 10.2542C65.9283 10.2542 65.8555 10.4723 65.8555 10.5451C65.8555 10.6905 65.7828 10.9087 65.4919 10.9087H62.6555L62.801 10.2542ZM61.201 13.3814H62.2192L62.5101 11.8542H65.6374L65.3465 13.3814H66.3647C66.5101 13.3814 66.6556 13.3087 66.6556 13.1632L67.1646 10.4723C67.5283 8.43597 66.3647 7.99961 64.8374 7.99961C62.9465 7.99961 61.9283 8.43597 61.4919 10.4723L60.9828 13.0905C60.9828 13.3087 61.0555 13.3814 61.201 13.3814Z" fill="#002B56" fill-opacity="0.6"/>
</g>
</g>
<defs>
<clipPath id="clip0_1_188">
<rect width="93" height="24" fill="white" transform="translate(0.75)"/>
</clipPath>
</defs>
</svg>
