<svg width="90" height="24" viewBox="0 0 90 24" fill="none" xmlns="http://www.w3.org/2000/svg">
<g clip-path="url(#clip0_1_183)">
<path d="M8.94877 13.5892L8.94611 8.43719C8.94611 7.89719 8.94611 7.33852 9.17144 6.80386C9.45344 6.13053 9.97144 5.57719 10.5941 5.28386C10.9571 5.11436 11.3528 5.02652 11.7534 5.02653C12.1438 5.0265 12.5299 5.10837 12.8867 5.26684C13.2435 5.4253 13.563 5.65685 13.8248 5.94652L15.1801 4.92919C14.7639 4.42686 14.2415 4.02315 13.6504 3.74716C13.0594 3.47116 12.4144 3.32978 11.7621 3.33319C11.0488 3.33319 10.3501 3.49852 9.7401 3.81319C8.89781 4.25007 8.21012 4.93521 7.77011 5.77586C7.56444 6.16102 7.42473 6.57789 7.35677 7.00919C7.3092 7.29465 7.28247 7.58319 7.27677 7.87252V8.19252L7.27344 8.18386V20.3012H8.94677V15.2366L12.8694 15.2345L12.8654 13.5832L8.94877 13.5892Z" fill="#002B56" fill-opacity="0.6"/>
<path d="M14.4763 9.88107L14.4843 20.3344H16.1657L16.161 9.88107H14.4763ZM15.1583 6.68974C14.956 6.77628 14.7835 6.92034 14.6622 7.10404C14.541 7.28773 14.4763 7.50298 14.4763 7.72307C14.4783 8.1744 14.7523 8.5831 15.1583 8.75641C15.3926 8.85413 15.6538 8.86698 15.8966 8.79275C16.1395 8.71853 16.3487 8.56182 16.4883 8.34973C16.6082 8.16304 16.6721 7.94591 16.6725 7.72403C16.6729 7.50215 16.6096 7.28481 16.4903 7.09774C16.3498 6.88605 16.1403 6.72966 15.8974 6.65525C15.6545 6.58085 15.3932 6.59303 15.1583 6.68974ZM30.847 20.3704H32.523L32.539 3.98773H30.8456V20.3704M46.995 10.7557C46.824 10.3451 46.5775 9.97021 46.2683 9.65041C45.6856 9.0517 44.9113 8.67661 44.0804 8.59038C43.3636 8.51907 42.607 8.65038 41.987 9.03044C41.605 9.26375 41.3017 9.57704 41.0017 9.90841C40.8814 9.77033 40.7569 9.6361 40.6283 9.50573C40.4032 9.28218 40.1432 9.09687 39.8583 8.95707C39.125 8.6017 38.2924 8.50762 37.4984 8.69041C36.8583 8.8351 36.2703 9.16373 35.807 9.6397C35.3403 10.1197 35.0137 10.7331 34.875 11.3931C34.8056 11.7353 34.7721 12.0838 34.775 12.433V20.3617L36.4244 20.3644L36.4223 12.421C36.4223 12.1344 36.4304 11.8357 36.4957 11.5558C36.5966 11.1271 36.8532 10.7512 37.2157 10.501C37.6117 10.231 38.111 10.1578 38.5784 10.219C38.8457 10.2536 39.1022 10.3464 39.3298 10.4908C39.5574 10.6353 39.7506 10.8279 39.8956 11.0551C40.1257 11.4084 40.213 11.7991 40.2157 12.2191L40.225 20.359L41.8904 20.3611L41.8883 12.4144C41.8883 12.1057 41.9043 11.8011 42.0063 11.5064C42.0827 11.2743 42.206 11.0604 42.3687 10.878C42.5313 10.6957 42.7298 10.5487 42.9517 10.4464C43.4023 10.2472 43.9127 10.2313 44.375 10.4017C44.8457 10.5728 45.2306 10.9215 45.447 11.3731C45.6116 11.7224 45.6404 12.1024 45.6404 12.4824L45.6416 20.3624L47.2863 20.3644V12.6977C47.2863 12.3778 47.2817 12.0577 47.2436 11.7424C47.2058 11.4037 47.1225 11.0717 46.995 10.7557ZM57.4717 17.0758C57.0857 17.551 56.599 17.9347 56.0468 18.1992C55.4946 18.4636 54.8906 18.6022 54.2783 18.6051C53.0617 18.601 51.8597 18.0197 51.0877 17.065C50.5076 16.3504 50.1143 15.3304 50.141 14.3964C50.1716 13.4084 50.4743 12.4697 51.0923 11.7064C51.689 10.9651 52.5536 10.4611 53.4737 10.2704C54.4123 10.0812 55.3874 10.2262 56.2304 10.6804C57.3203 11.2684 58.093 12.3451 58.3343 13.5737C58.451 14.1852 58.4344 14.8147 58.2856 15.4192C58.1369 16.0236 57.8594 16.5889 57.4724 17.0764L57.4717 17.0758ZM59.3183 11.5477C58.8813 10.7986 58.29 10.151 57.5836 9.64776C56.6677 8.99444 55.5796 8.60641 54.459 8.57444C53.4307 8.54435 52.4131 8.7907 51.5123 9.28776C50.5456 9.83204 49.7542 10.6408 49.231 11.6191C48.8146 12.3935 48.5755 13.2508 48.531 14.1291C48.4917 15.0035 48.6395 15.8763 48.9644 16.6891C49.3472 17.6405 49.9724 18.4752 50.7776 19.1104C51.7263 19.8538 52.9277 20.257 54.1217 20.2971C55.1924 20.3304 56.2443 20.0437 57.1703 19.5024C57.6157 19.2444 58.0036 18.9111 58.3703 18.5518V20.341H60.017V14.9638C60.017 14.5004 60.0056 14.0331 59.9703 13.5704C59.9137 12.847 59.6804 12.1724 59.3183 11.5464V11.5477ZM69.459 10.0777C68.9078 9.44924 68.1902 8.9893 67.389 8.7511C66.5501 8.50965 65.6599 8.51196 64.8224 8.7577C64.0551 8.99418 63.3644 9.43021 62.821 10.021C62.297 10.5877 61.8944 11.3011 61.7384 12.0677C61.6646 12.4141 61.6258 12.767 61.6223 13.1211L61.6263 20.3344H63.257L63.255 13.6897C63.2576 13.4804 63.2576 13.2711 63.2643 13.0618C63.2715 12.708 63.3467 12.3591 63.4856 12.0337C63.7657 11.3724 64.2843 10.7957 64.931 10.4904C65.3284 10.3066 65.7632 10.2178 66.2008 10.2313C66.6385 10.2447 67.067 10.3599 67.4523 10.5677C67.9986 10.8655 68.4371 11.3278 68.7056 11.8891C68.9123 12.3178 68.9924 12.805 68.9924 13.2784L68.9977 20.3357H70.6363L70.6383 13.5077C70.6383 12.9811 70.601 12.4457 70.465 11.9357C70.2777 11.2476 69.9339 10.6122 69.4604 10.0791M81.5317 11.7211C81.2918 10.9813 80.87 10.3135 80.305 9.77907C79.5977 9.10878 78.6879 8.69213 77.7183 8.59441C76.8616 8.50907 75.9916 8.65441 75.2223 9.0511C74.3779 9.48841 73.6885 10.1751 73.2476 11.0177C73.0421 11.4036 72.9024 11.8211 72.8343 12.253C72.7943 12.5377 72.7544 12.8304 72.7544 13.1197L72.7576 20.3331H74.391L74.387 13.6877C74.387 13.1191 74.3897 12.5677 74.615 12.0324C74.893 11.3691 75.4136 10.7924 76.0616 10.4878C76.4587 10.3039 76.8933 10.2152 77.3307 10.2285C77.7681 10.2418 78.1964 10.3568 78.5816 10.5644C79.1282 10.8616 79.5672 11.3235 79.8363 11.8844C80.043 12.3137 80.123 12.8011 80.123 13.2744L80.1277 20.3317H81.769V13.5044C81.771 12.9044 81.717 12.2931 81.5324 11.7204M19.419 13.6111C19.5644 13.0911 19.7303 12.5897 20.0237 12.1344C20.517 11.3704 21.2276 10.771 22.0784 10.4624C22.9839 10.1332 23.9756 10.1273 24.885 10.4458C25.6617 10.7307 26.3378 11.2372 26.8297 11.9024C27.239 12.4491 27.4263 12.9504 27.5744 13.6104H19.4204L19.419 13.6111ZM28.303 11.1691C27.7417 10.3304 26.971 9.62907 26.073 9.18044C25.0797 8.68304 23.9636 8.48438 22.8596 8.60838C21.7798 8.73438 20.7584 9.1657 19.915 9.85176C19.0449 10.5684 18.3935 11.515 18.035 12.5837C17.6617 13.693 17.679 14.8957 17.947 16.027C18.1403 16.8457 18.5537 17.5711 19.0856 18.2091C19.6923 18.9344 20.435 19.525 21.3037 19.8871C22.2955 20.2948 23.3792 20.4262 24.4397 20.2671C25.3616 20.1271 26.2376 19.7244 26.9763 19.147C27.5677 18.6871 28.0383 18.1071 28.483 17.5057L27.0536 16.633C26.8803 16.9344 26.6804 17.2198 26.4303 17.4598C25.8157 18.0517 25.0523 18.4764 24.217 18.6244C23.4515 18.7602 22.6631 18.6723 21.9464 18.3711C21.0677 18.001 20.2997 17.2877 19.8464 16.4391C19.6463 16.0644 19.5497 15.6764 19.473 15.2617H29.2337C29.2982 14.7763 29.3072 14.2852 29.2604 13.7977C29.1571 12.8569 28.8282 11.9549 28.3016 11.1684L28.303 11.1691Z" fill="#002B56" fill-opacity="0.6"/>
</g>
<defs>
<clipPath id="clip0_1_183">
<rect width="89" height="24" fill="white" transform="translate(0.25)"/>
</clipPath>
</defs>
</svg>
