<svg width="141" height="24" viewBox="0 0 141 24" fill="none" xmlns="http://www.w3.org/2000/svg">
<g clip-path="url(#clip0_1_199)">
<g clip-path="url(#clip1_1_199)">
<g clip-path="url(#clip2_1_199)">
<mask id="mask0_1_199" style="mask-type:luminance" maskUnits="userSpaceOnUse" x="0" y="4" width="140" height="16">
<path d="M139.608 4.63159H0.528809V19.3684H139.608V4.63159Z" fill="white"/>
</mask>
<g mask="url(#mask0_1_199)">
<path fill-rule="evenodd" clip-rule="evenodd" d="M62.826 4.90146L66.3408 13.3798L69.8555 4.90146H72.3654L66.6106 18.8066L66.3408 19.0774L66.07 18.8066L60.3152 4.90146H62.826ZM50.1965 4.90146C51.5486 4.90146 52.8307 5.60791 53.5372 6.63949L52.186 7.99159H51.7605C51.4805 7.39291 50.8643 7.02633 50.1965 7.02633C49.4017 7.02633 48.6565 7.68028 48.6123 8.51291C48.5801 9.13922 48.8675 9.53067 49.386 9.86501C49.9442 10.2251 50.1726 10.3753 50.9306 10.7916C51.7568 11.2457 53.8467 12.1363 53.8467 14.4804C53.8467 16.7913 51.9152 18.9411 49.4238 18.9411C49.1042 18.9411 48.5248 18.9051 48.0919 18.8057C46.8715 18.51 46.131 18.0486 45.3306 17.1063L47.0686 15.3296L47.6673 15.8316C47.9372 16.0434 48.5304 16.4699 49.095 16.5463C50.2426 16.702 51.0126 15.943 51.1618 15.1942C51.2806 14.6029 51.1305 13.7205 50.1772 13.2637C50.1772 13.2637 48.4585 12.3086 47.7051 11.8729C46.9379 11.429 46.1218 10.2169 46.1218 8.76436C46.1218 7.68304 46.6173 6.6358 47.4159 5.90633C48.033 5.3408 48.8794 4.90146 50.1965 4.90146ZM128.251 4.63159L137.25 13.6303V5.17225L137.521 4.90146H139.298L139.568 5.17225V18.8057H139.143L130.299 9.96172V18.5358L130.028 18.8057H128.251L127.982 18.5358V4.90146L128.251 4.63159ZM101.719 4.90146V6.94896L101.448 7.21883H99.4013V18.8057H97.0839V7.21883H94.7665V5.17225L95.0373 4.90146H101.719ZM110.215 4.90146V6.94896L109.945 7.21883H107.898V18.8057H105.581V7.21883H103.263V5.17225L103.534 4.90146H110.215ZM2.84617 4.90146V16.4883H7.48091V18.8057H0.528809V5.17225L0.798677 4.90146H2.84617ZM15.9776 4.90146C17.8214 4.90146 19.5897 5.63391 20.8935 6.93769C22.1973 8.24146 22.9297 10.0098 22.9297 11.8536C22.9297 13.6974 22.1973 15.4657 20.8935 16.7694C19.5897 18.0732 17.8214 18.8057 15.9776 18.8057C14.1338 18.8057 12.3655 18.0732 11.0618 16.7694C9.758 15.4657 9.02552 13.6974 9.02552 11.8536C9.02552 10.0098 9.758 8.24146 11.0618 6.93769C12.3655 5.63391 14.1338 4.90146 15.9776 4.90146ZM118.712 4.90146C120.556 4.90146 122.324 5.63391 123.628 6.93769C124.931 8.24146 125.664 10.0098 125.664 11.8536C125.664 13.6974 124.931 15.4657 123.628 16.7694C122.324 18.0732 120.556 18.8057 118.712 18.8057C116.868 18.8057 115.1 18.0732 113.796 16.7694C112.492 15.4657 111.76 13.6974 111.76 11.8536C111.76 10.0098 112.492 8.24146 113.796 6.93769C115.1 5.63391 116.868 4.90146 118.712 4.90146ZM28.0664 4.90146L28.3363 5.17225V14.1709C28.3363 14.7856 28.5804 15.3749 29.015 15.8096C29.4496 16.2441 30.039 16.4883 30.6536 16.4883C31.2683 16.4883 31.8577 16.2441 32.2923 15.8096C32.7269 15.3749 32.971 14.7856 32.971 14.1709V5.17225L33.2418 4.90146H35.0185L35.2884 5.17225V14.1709C35.2884 15.4002 34.8001 16.579 33.9309 17.4482C33.0617 18.3173 31.8829 18.8057 30.6536 18.8057C29.4245 18.8057 28.2456 18.3173 27.3764 17.4482C26.5072 16.579 26.0189 15.4002 26.0189 14.1709V5.17225L26.2897 4.90146H28.0664ZM42.2405 4.90146V18.5358L41.9697 18.8057H39.9231V5.17225L40.193 4.90146H42.2405ZM76.7302 4.90146L77.0001 5.17225V14.1709C77.0001 14.7856 77.2443 15.3749 77.6788 15.8096C78.1135 16.2441 78.7028 16.4883 79.3175 16.4883C79.9321 16.4883 80.5216 16.2441 80.9561 15.8096C81.3907 15.3749 81.6348 14.7856 81.6348 14.1709V5.17225L81.9056 4.90146H83.6814L83.9522 5.17225V14.1709C83.9522 15.4002 83.464 16.579 82.5947 17.4482C81.7256 18.3173 80.5467 18.8057 79.3175 18.8057C78.0882 18.8057 76.9094 18.3173 76.0403 17.4482C75.1711 16.579 74.6827 15.4002 74.6827 14.1709V5.17225L74.9535 4.90146H76.7302ZM90.9043 4.90146V18.5358L90.6335 18.8057H88.5869V5.17225L88.8568 4.90146H90.9043ZM15.9767 7.21975C15.368 7.21981 14.7653 7.33976 14.2029 7.57276C13.6406 7.80576 13.1296 8.14723 12.6993 8.57769C11.8301 9.44705 11.3418 10.6261 11.3419 11.8554C11.3421 13.0847 11.8306 14.2637 12.6999 15.1329C13.5692 16.0021 14.7483 16.4902 15.9776 16.4901C17.2069 16.4901 18.386 16.0018 19.2552 15.1325C20.1244 14.2632 20.6128 13.0843 20.6128 11.8549C20.6128 10.6256 20.1244 9.44663 19.2552 8.57737C18.386 7.7081 17.2069 7.21975 15.9776 7.21975H15.9767ZM118.712 7.21975C117.482 7.21975 116.304 7.7081 115.434 8.57737C114.565 9.44663 114.076 10.6256 114.076 11.8549C114.076 13.0843 114.565 14.2632 115.434 15.1325C116.304 16.0018 117.482 16.4901 118.712 16.4901C119.941 16.4901 121.12 16.0018 121.989 15.1325C122.859 14.2632 123.347 13.0843 123.347 11.8549C123.347 10.6256 122.859 9.44663 121.989 8.57737C121.12 7.7081 119.941 7.21975 118.712 7.21975Z" fill="#002B56" fill-opacity="0.6"/>
</g>
</g>
</g>
</g>
<defs>
<clipPath id="clip0_1_199">
<rect width="140" height="24" fill="white" transform="translate(0.25)"/>
</clipPath>
<clipPath id="clip1_1_199">
<rect width="140" height="24" fill="white" transform="translate(0.25)"/>
</clipPath>
<clipPath id="clip2_1_199">
<rect width="140" height="14.7368" fill="white" transform="translate(0.25 4.63159)"/>
</clipPath>
</defs>
</svg>
