<svg width="141" height="24" viewBox="0 0 141 24" fill="none" xmlns="http://www.w3.org/2000/svg">
<g clip-path="url(#clip0_1_216)">
<mask id="mask0_1_216" style="mask-type:luminance" maskUnits="userSpaceOnUse" x="4" y="0" width="133" height="24">
<path d="M136.139 0H4.1391V24H136.139V0Z" fill="white"/>
</mask>
<g mask="url(#mask0_1_216)">
<path d="M10.688 0.0759339C9.26515 0.435054 7.89854 1.52838 6.77312 3.19631C5.45475 5.15153 4.46598 8.13623 4.20873 10.9374C3.94345 13.8263 4.46598 19.0695 5.26986 21.5754C5.93708 23.6423 6.53194 24.177 7.69758 23.7381C8.0352 23.6104 8.09147 23.4428 7.94678 22.9081C7.77796 22.2537 7.48856 20.3544 7.15094 17.7048C6.9982 16.4598 6.86958 15.4304 6.86958 15.4145C6.86958 15.3985 7.22328 15.159 7.64935 14.8797C9.04005 13.978 11.0417 12.4297 11.7732 11.6956C13.1479 10.3069 13.9679 8.83852 14.5628 6.6758C14.7718 5.90968 14.7637 3.57139 14.5547 2.84516C14.0483 1.10542 13.0032 0.0839131 11.6687 0.004109C11.3472 -0.0118528 10.9131 0.0200692 10.688 0.0759339ZM11.9742 1.46454C13.574 2.02317 13.7106 4.7126 12.3038 7.67336C11.1784 10.0196 9.57062 11.8871 7.40817 13.3635L6.6686 13.8662L6.61233 13.6507C6.58018 13.531 6.50783 12.7808 6.4596 11.9749C6.33902 10.275 6.42744 8.93429 6.75704 7.31424C7.23936 4.92009 8.05932 3.21227 9.24103 2.14289C10.1655 1.29695 10.9453 1.10542 11.9742 1.46454Z" fill="#002B56" fill-opacity="0.6"/>
<path d="M67.362 3.08549C66.1321 3.34885 65.1433 4.07507 64.653 5.08061C64.4038 5.58338 64.4118 6.53306 64.661 7.17949C65.0067 8.06532 66.4295 9.92475 68.6563 12.4306C71.3975 15.5191 72.8847 18.0968 72.6597 19.3976C72.5793 19.8923 72.3863 20.3073 72.1611 20.4829C71.8557 20.7303 70.9633 20.9777 70.4167 20.9697C69.1788 20.9538 68.2142 20.4669 66.0758 18.7831C65.6338 18.4319 65.1192 18.0808 64.9263 17.993C64.5967 17.8413 64.5646 17.8413 64.4198 17.977C64.3314 18.0569 64.2672 18.2165 64.2672 18.3761C64.2672 19.0624 66.1241 20.7942 67.8846 21.7438C69.621 22.6856 70.9633 22.9649 72.33 22.6775C73.3348 22.47 73.8735 21.9273 74.2754 20.7143C74.4764 20.1318 74.4925 19.9801 74.4443 19.4135C74.3719 18.4878 74.1388 17.7057 73.5841 16.5964C72.6998 14.8328 71.7513 13.5 69.2512 10.5073C67.0566 7.88975 66.8797 7.66629 66.5984 7.14756C66.2366 6.46922 66.2045 6.06221 66.4698 5.51953C66.735 4.98484 67.0886 4.70553 67.6112 4.60976C68.5919 4.42621 70.5052 5.0886 71.7834 6.05424C72.7159 6.7645 72.9249 7.4588 72.3059 7.8259C72.0004 8.00148 71.9603 8.38454 72.2496 8.46434C72.6436 8.56809 73.0937 8.50424 73.5198 8.28878C73.8655 8.12118 74.0101 7.97753 74.2191 7.63437C74.3798 7.36303 74.4764 7.09968 74.4764 6.91612C74.4764 6.30961 73.6163 5.2083 72.5793 4.4741C71.9522 4.02719 70.7544 3.46058 69.9747 3.2451C69.2994 3.06155 67.8846 2.96579 67.362 3.08549Z" fill="#002B56" fill-opacity="0.6"/>
<path d="M43.9529 4.26473C43.0766 4.57597 42.4979 5.1346 41.9914 6.1561C41.4689 7.20953 41.3322 7.87191 41.3242 9.30847C41.3161 10.4098 41.3402 10.6412 41.5413 11.4232C41.9512 13.0193 43.0606 15.4614 44.2986 17.5044C44.6281 18.0391 44.8934 18.5179 44.8934 18.5658C44.8934 18.7414 44.3307 19.8587 44.0895 20.1619C43.7197 20.6168 43.1008 20.8961 42.4255 20.8961C40.5926 20.9041 39.4672 19.7788 37.152 15.6449C36.4768 14.4479 36.107 14.1526 35.6649 14.4718C35.5201 14.5756 35.07 15.3496 34.3626 16.7224C33.7677 17.8795 33.1487 18.9888 32.996 19.1883C32.6182 19.6911 32.0956 19.9704 31.6696 19.8905C30.9541 19.7549 30.6165 19.1085 29.5875 15.9243C28.9203 13.8494 28.663 13.4424 28.1888 13.6977C27.8673 13.8733 27.5376 14.6154 26.8945 16.6505C25.7611 20.2497 25.4797 20.7206 24.4909 20.6248C24.0167 20.5769 23.5665 20.3056 23.2851 19.8986C23.06 19.5554 22.65 18.3583 22.1355 16.4908C21.6854 14.8789 21.4201 14.1447 20.9136 13.179C20.3349 12.0856 19.6354 11.5828 18.502 11.4632C16.7817 11.2717 15.3267 12.3889 14.0646 14.8708C13.5983 15.7966 13.325 16.85 13.2205 18.1907C13.0034 20.7844 13.5903 22.2289 15.1498 22.9471C16.1386 23.402 17.7223 23.4259 18.6789 22.995C19.2014 22.7556 19.4265 22.5561 20.0294 21.8139C21.1226 20.4652 22.023 20.4732 22.9153 21.8379C23.5263 22.7795 24.089 23.1067 24.8687 22.995C25.7289 22.8673 26.3318 22.2448 27.5698 20.2018C28.0763 19.3479 28.3013 19.1245 28.6229 19.1245C28.9444 19.1245 29.3625 19.5634 29.8528 20.3854C30.4799 21.4548 30.9862 21.7979 31.9107 21.79C32.3288 21.79 32.5618 21.742 32.8352 21.5984C33.3176 21.351 34.0652 20.6248 34.9253 19.5794C35.7372 18.5978 35.9462 18.4142 36.308 18.3583C36.7179 18.2944 37.0475 18.5738 37.9157 19.723C38.9447 21.0796 39.7164 21.8537 40.3836 22.181C40.8338 22.3964 41.0027 22.4364 41.6779 22.4603C42.104 22.4763 42.6587 22.4524 42.9078 22.3964C43.9287 22.189 44.9095 21.4867 45.5446 20.5051C45.7295 20.2018 45.8983 19.9465 45.9143 19.9305C45.9224 19.9145 46.1394 20.0901 46.3886 20.3136C47.6427 21.4467 48.6717 21.9016 50.1669 21.9735C51.5656 22.0453 52.5142 21.8219 53.4789 21.1994C54.0576 20.8323 54.2586 20.5689 54.1863 20.2736C54.122 20.0183 53.7682 19.6831 53.5593 19.6831C53.4789 19.6831 53.1171 19.8427 52.7473 20.0343C51.8952 20.4892 51.3647 20.6407 50.5849 20.6407C49.3067 20.6407 48.2938 20.0661 47.1765 18.7095L46.7102 18.1508L46.8951 17.5044C47.1684 16.4908 47.6829 13.977 47.8678 12.764C48.3823 9.34041 47.9723 6.47532 46.7745 5.02288C46.1716 4.29665 44.8613 3.93753 43.9529 4.26473ZM45.4642 5.55757C45.8661 5.97256 46.0591 6.61099 46.1877 7.87989C46.3565 9.6117 46.1314 12.9236 45.7054 15.0145L45.4722 16.1318L44.5156 14.1765C43.366 11.8542 43.1891 11.4232 42.9802 10.4257C42.7471 9.33238 42.6908 8.50237 42.8033 7.7522C43.0445 6.1561 43.776 5.24633 44.805 5.23835C45.1185 5.23835 45.1989 5.27825 45.4642 5.55757ZM18.9682 13.179C19.6033 13.546 20.166 14.6235 20.3831 15.8923C20.4313 16.1956 20.4796 16.882 20.4796 17.4087C20.4876 18.8451 20.2464 19.4916 19.3461 20.3933C18.7352 21.0078 18.277 21.2552 17.5374 21.3749C16.5646 21.5345 15.7206 21.1116 15.4874 20.3454C15.2865 19.6671 15.198 18.4301 15.3025 17.6162C15.5196 15.9801 16.0663 14.3521 16.6049 13.7456C17.2721 12.9954 18.2528 12.756 18.9682 13.179Z" fill="#002B56" fill-opacity="0.6"/>
<path d="M96.0107 4.51235C95.6972 4.75974 95.5927 5.08694 95.6329 5.70144C95.6811 6.30795 95.8178 6.63516 96.2198 7.0262C96.5577 7.36138 96.9592 7.48907 97.345 7.38532C98.318 7.11398 98.1897 5.35827 97.1364 4.57619C96.8069 4.34475 96.2678 4.30485 96.0107 4.51235Z" fill="#002B56" fill-opacity="0.6"/>
<path d="M106.712 6.58832C106.479 6.65216 106.318 7.01926 106.318 7.51405C106.31 7.68962 106.382 8.42383 106.471 9.15005C107.138 14.7603 107.106 16.117 106.286 18.0004C105.94 18.7905 105.514 19.421 104.936 20.0035C104.429 20.5063 103.617 20.9612 103.239 20.9612C102.95 20.9612 102.467 20.7218 102.09 20.3866C101.663 20.0195 100.586 18.3595 99.5577 16.4921C98.4001 14.3853 98.1343 14.0261 97.7327 14.0182C97.4595 14.0182 97.2177 14.4171 96.6232 15.8536C95.5299 18.5112 94.8788 19.5965 94.3079 19.7003C93.5603 19.8439 93.1745 19.421 91.6713 16.8512C90.3529 14.5848 89.8223 13.9224 89.2274 13.8107C88.5923 13.6989 88.3593 13.9703 87.3785 15.9335C86.2933 18.1042 85.8512 18.7187 85.2804 18.8783C84.4685 19.1018 84.0424 18.6069 82.5151 15.7021C81.7835 14.3134 81.4298 13.8585 81.0921 13.8585C80.7545 13.8585 80.3928 14.3214 80.0552 15.1913C79.83 15.7899 79.6693 16.0611 79.404 16.3245C79.0905 16.6437 79.0342 16.6677 78.7689 16.6277C78.3751 16.5639 78.1178 16.3085 77.8525 15.7339C77.6113 15.2152 77.338 14.9199 77.0889 14.896C76.6708 14.8481 76.5824 14.896 76.4859 15.1833C76.3734 15.5105 76.4135 15.8696 76.6949 17.0108C76.7995 17.4497 76.9844 18.3435 77.0969 19.0059C77.4586 21.1607 77.7802 22.2301 78.1098 22.4056C78.2223 22.4695 78.3268 22.4535 78.5197 22.3418C78.7288 22.2221 78.9378 21.887 79.6774 20.4424C80.6902 18.4633 80.9636 18.0882 81.4218 18.0882C81.5825 18.0882 81.7996 18.1441 81.9121 18.2159C82.1533 18.3675 82.6838 19.1496 83.6485 20.7457C84.7338 22.5652 85.1598 22.9004 85.8109 22.4615C86.1807 22.2062 86.5585 21.6395 87.5473 19.796C88.7692 17.5375 88.9863 17.2582 89.5168 17.2742C90.0554 17.2901 90.4494 17.7531 92.1054 20.3547C93.2066 22.0784 93.7051 22.7169 94.115 22.9244C94.3803 23.068 94.7581 23.0282 95.0475 22.8286C95.3048 22.6451 95.8755 21.7513 96.5835 20.4026C97.25 19.1416 97.7724 18.4873 98.1269 18.4873C98.3198 18.4873 98.858 18.7984 99.0352 19.0059C99.0749 19.0618 99.565 19.6603 100.112 20.3307C101.302 21.7992 101.961 22.4934 102.452 22.7808C103.183 23.2117 104.3 22.9722 105.337 22.1583C105.554 21.9827 106.214 21.3921 106.793 20.8415C107.372 20.2828 107.886 19.8439 107.934 19.8599C107.982 19.8759 108.263 20.2908 108.56 20.7856C110.072 23.2675 110.764 23.866 112.154 23.8581C112.999 23.8581 113.61 23.5868 114.011 23.0361C114.767 21.9987 115.088 21.7432 115.676 21.7432C116.109 21.7432 116.254 21.8231 116.849 22.3658C117.283 22.7648 117.347 22.7967 117.717 22.7967C118.199 22.7967 118.352 22.6611 119.027 21.6156C119.542 20.8176 120.74 19.5247 121.535 18.8943C122.243 18.3356 122.669 18.1441 123.191 18.1361C123.875 18.1281 124.229 18.3835 125.965 20.1552C129.414 23.6825 129.357 23.6346 130.363 23.8741C131.447 24.1294 132.693 23.9619 134.566 23.3314C135.21 23.1159 135.515 22.7887 135.475 22.3658C135.435 21.9588 135.177 21.9348 133.979 22.2221C131.994 22.7089 131.191 22.7089 130.426 22.2301C129.984 21.9588 126.078 18.0563 125.129 16.947C124.156 15.8138 123.657 15.5903 122.79 15.8936C122.211 16.0931 120.587 17.354 119.156 18.7027C118.537 19.2853 118.079 19.5167 117.548 19.5247C117.106 19.5247 116.729 19.2614 116.543 18.8224C116.374 18.4234 116.287 16.8113 116.278 14.2575C116.278 10.2593 115.997 8.71113 115.209 8.32806C114.332 7.89711 113.907 8.87871 114.108 10.8659C114.228 12.1347 114.236 16.2926 114.116 17.4099C113.955 18.8463 113.569 20.1711 113.135 20.7058C112.7 21.2565 111.833 21.3602 111.27 20.9372C110.225 20.1471 109.067 16.532 108.907 13.5793C108.818 11.8554 109.14 11.4804 111.109 11.0255C112.5 10.7063 112.741 10.5546 112.741 10.0279C112.741 9.48524 112.315 9.07025 111.761 9.07025C111.616 9.07025 111.189 9.14207 110.812 9.22986C110.434 9.31761 109.919 9.38942 109.67 9.38942C109.1 9.38942 108.874 9.2139 108.681 8.59142C108.224 7.15493 107.468 6.3888 106.712 6.58832Z" fill="#002B56" fill-opacity="0.6"/>
</g>
</g>
<defs>
<clipPath id="clip0_1_216">
<rect width="140" height="24" fill="white" transform="translate(0.25)"/>
</clipPath>
</defs>
</svg>
